<?xml version="1.0" encoding="UTF-8"?>
<svg id="Layer_1" xmlns="http://www.w3.org/2000/svg" xmlns:xlink="http://www.w3.org/1999/xlink" viewBox="0 0 424.8 302.4">
  <defs>
    <style>
      .cls-1, .cls-2, .cls-3, .cls-4, .cls-5 {
        fill: none;
      }

      .cls-6 {
        fill: #fdbe11;
      }

      .cls-2 {
        stroke: #16498a;
      }

      .cls-2, .cls-3, .cls-4, .cls-5 {
        stroke-miterlimit: 8;
      }

      .cls-7 {
        fill: #e78424;
      }

      .cls-7, .cls-8, .cls-9 {
        stroke-miterlimit: 10;
        stroke-width: 2px;
      }

      .cls-7, .cls-9 {
        stroke: #000001;
      }

      .cls-3 {
        stroke-width: 3px;
      }

      .cls-3, .cls-5 {
        stroke: #21409a;
      }

      .cls-10 {
        fill: #000001;
      }

      .cls-11 {
        fill: #ed1c24;
      }

      .cls-8 {
        fill: #442d7c;
        stroke: #452d7c;
      }

      .cls-4 {
        stroke: #2b3990;
        stroke-width: .5px;
      }

      .cls-12 {
        fill: #231f20;
        font-size: 14px;
        letter-spacing: 0em;
      }

      .cls-12, .cls-13, .cls-14, .cls-15 {
        font-family: ArialMT, Arial;
      }

      .cls-16 {
        fill: #3d6cb4;
      }

      .cls-13, .cls-17 {
        letter-spacing: 0em;
      }

      .cls-13, .cls-14 {
        font-size: 9.5px;
      }

      .cls-13, .cls-14, .cls-15 {
        fill: #f1f2f2;
      }

      .cls-9 {
        fill: #ec4924;
        fill-rule: evenodd;
      }

      .cls-18 {
        fill: #21409a;
      }

      .cls-19 {
        letter-spacing: 0em;
      }

      .cls-20 {
        fill: #82d4f1;
      }

      .cls-21 {
        clip-path: url(#clippath);
      }

      .cls-15 {
        font-size: 15px;
        letter-spacing: 0em;
      }

      .cls-5 {
        stroke-width: .75px;
      }
    </style>
    <clipPath id="clippath">
      <rect class="cls-1" x="125.2" y="197.73" width="43.2" height="36.04"/>
    </clipPath>
  </defs>
  <rect class="cls-20" x="0" y="0" width="424.8" height="302.4" rx="18.44" ry="18.44"/>
  <g>
    <circle class="cls-7" cx="224.51" cy="142.37" r="28.8"/>
    <path class="cls-9" d="M114.18,142.71l-12.16,5.44c-.25.11-.52-.07-.52-.34v-10.88c0-.27.28-.45.52-.34l12.16,5.44c.29.13.29.55,0,.68Z"/>
    <rect class="cls-8" x="118" y="113.57" width="57.6" height="57.6" rx="9.6" ry="9.6"/>
    <path class="cls-9" d="M191.89,142.71l-12.16,5.44c-.25.11-.52-.07-.52-.34v-10.88c0-.27.28-.45.52-.34l12.16,5.44c.29.13.29.55,0,.68Z"/>
    <g>
      <circle class="cls-7" cx="146.8" cy="64.66" r="28.8"/>
      <g>
        <rect class="cls-10" x="123.53" y="51.52" width="15.58" height="5.61"/>
        <g>
          <rect class="cls-10" x="150.97" y="51.52" width="9.04" height="5.61"/>
          <rect class="cls-10" x="161.04" y="51.52" width="9.04" height="5.61"/>
          <rect class="cls-10" x="140.91" y="51.52" width="9.04" height="5.61"/>
        </g>
        <g>
          <rect class="cls-10" x="123.53" y="58.93" width="15.58" height="5.61"/>
          <rect class="cls-10" x="123.53" y="65.56" width="15.58" height="5.61"/>
          <rect class="cls-10" x="123.53" y="72.2" width="15.58" height="5.61"/>
        </g>
        <g>
          <g>
            <rect class="cls-10" x="150.97" y="58.93" width="9.04" height="5.61"/>
            <rect class="cls-10" x="161.04" y="58.93" width="9.04" height="5.61"/>
            <rect class="cls-10" x="140.91" y="58.93" width="9.04" height="5.61"/>
          </g>
          <g>
            <rect class="cls-10" x="150.97" y="72.2" width="9.04" height="5.61"/>
            <rect class="cls-10" x="161.04" y="72.2" width="9.04" height="5.61"/>
            <rect class="cls-10" x="140.91" y="72.2" width="9.04" height="5.61"/>
          </g>
          <g>
            <rect class="cls-10" x="150.97" y="65.56" width="9.04" height="5.61"/>
            <rect class="cls-10" x="161.04" y="65.56" width="9.04" height="5.61"/>
            <rect class="cls-10" x="140.91" y="65.56" width="9.04" height="5.61"/>
          </g>
        </g>
      </g>
    </g>
    <path class="cls-9" d="M147.14,174.99l5.44,12.16c.11.25-.07.52-.34.52h-10.88c-.27,0-.45-.28-.34-.52l5.44-12.16c.13-.29.55-.29.68,0Z"/>
    <circle class="cls-7" cx="69.1" cy="142.37" r="28.8"/>
    <polyline class="cls-4" points="46.95 157.5 47.74 158.48 48.54 157.49 48.57 156.6 48.59 158.42 49.19 157.55 49.37 155.13 49.43 158.56 49.69 155.58 49.93 157.65 49.98 158.33 49.98 154.11 50.16 156.23 50.34 158.78 50.69 157.66 50.76 153.99 50.94 154.23 51 156.36 51.13 153.12 51.29 158.64 51.57 157.99 51.62 153.45 51.96 158.57 52.1 156.77 52.15 154.58 52.2 148.13 52.2 158.09 52.35 154.05 52.56 156.87 52.59 149.95 52.57 151.42 52.67 148.72 52.93 158.41 53.04 157.18 53.06 144.02 53.06 154 53.22 150.43 53.2 152.84 53.22 155.51 53.32 152.46 53.35 141.98 53.4 141.09 53.43 154.78 53.58 156.44 53.69 155.43 53.8 149.56 53.85 139.92 54 158.34 54.42 155.08 54.45 150.73 54.4 151.77 54.55 140.68 54.5 145.83 54.61 157.55 54.79 155.9 54.84 152.75 54.97 157.34 55.07 155.71 55.2 156.88 55.17 146.5 55.31 155.27 55.34 148.02 55.36 146.81 55.46 143.93 55.47 156.38 55.59 154.03 55.6 156.7 55.78 147.3 55.72 151.74 55.88 148.91 55.93 154.95 56.07 150.79 56.09 147.1 56.25 155.9 56.38 144.93 56.33 149.88 56.35 152.92 56.56 148.24 56.64 148.69 56.67 142.03 56.75 157.25 56.85 156.51 56.91 154.95 57.16 149.25 57.11 150.72 57.13 155.86 57.17 156.66 57.27 157.45 57.37 155.06 57.38 155.17 57.4 152.7 57.5 153.41 57.61 147.69 57.66 135.91 57.63 155.18 57.74 153.08 57.77 147.99 57.79 147.18 57.82 136.03 57.84 132.35 57.87 144.84 57.95 148.69 58.08 139.66 58.03 140.32 58.1 152.28 58.24 146.15 58.26 152.5 58.39 150.1 58.42 147.62 58.37 152.68 58.39 155.79 58.66 156.36 58.57 151.68 58.76 155.23 58.84 141.85 58.81 148.32 58.91 144.16 58.95 143.34 58.89 149.38 58.92 153.71 59.02 150.97 59.04 146.97 59.1 135.78 59.07 136.91 59.21 154.51 59.33 147.87 59.46 149.48 59.52 155.96 59.65 150.32 59.7 153.74 59.78 155.48 59.8 156.3 59.91 153.59 59.98 154.12 60.07 139.41 60.07 150.61 60.19 143.49 60.22 135.78 60.3 154.18 60.43 152.66 60.46 149.33 60.45 156.95 60.59 153.56 60.61 148.43 60.88 151.78 61.03 145.36 61.08 148.23 61.16 142.77 61.21 155.01 61.32 156.04 61.35 149.73 61.43 154.79 61.42 155.29 61.58 145.07 61.6 140.37 61.64 125.22 61.58 132.68 61.61 143.61 61.63 151.93 61.89 145.17 61.92 155.49 62.02 151.51 62.05 150.18 62.08 144.63 62.07 155.23 62.21 152.64 62.31 133.58 62.28 140.59 62.32 150.22 62.52 142.05 62.47 147.74 62.49 153.56 62.63 152.89 62.6 153.92 62.73 145.29 62.78 156.01 62.89 150.8 62.92 137.82 62.86 141.35 62.89 145.41 62.91 151.71 62.94 153.54 63.05 152.84 63.07 150.11 63.09 143.78 63.15 155.01 63.26 148.12 63.28 141.17 63.31 156.85 63.51 149.95 63.46 151.53 63.49 155.05 63.68 144.74 63.65 149.99 63.67 154.76 63.78 154.07 63.8 153.28 63.83 145.72 63.85 143.79 63.93 137.81 63.9 146.2 64.01 141.6 64.04 147.11 64.11 156.11 64.25 155.19 64.33 146.5 64.4 147.9 64.43 141.47 64.56 149.83 64.69 145.39 64.71 131.98 64.75 127.32 64.69 132.35 64.72 141.64 64.74 147.44 64.85 154.95 65.09 145.83 65.11 129.29 65.16 150.89 65.18 153.94 65.29 147.92 65.32 141.69 65.35 156.93 65.5 134.1 65.5 144.66 65.53 148.87 65.55 149.66 65.66 145.51 65.89 153.15 65.92 155.49 66.02 149.22 66.02 152.59 66.05 155.98 66.16 153.78 66.18 149.04 66.21 157.13 66.33 143.47 66.39 141.19 66.39 154.77 66.52 152.48 66.54 151 66.65 132.86 66.6 136.27 66.67 152.51 66.81 149.82 66.81 155.53 66.94 145.64 66.88 147.3 66.99 145.24 66.94 150.17 67.01 157.9 67.2 154.08 67.23 143.25 67.25 134.21 67.2 140.19 67.22 152.72 67.25 155.61 67.38 142.08 67.33 146.06 67.44 144.45 67.49 134.17 67.49 150.71 67.59 149.51 67.64 155.45 67.82 152.36 67.8 155.52 67.88 155.61 67.93 154.69 67.99 154.76 68.14 151.55 68.17 152.04 68.32 144.3 68.27 145.88 68.37 145.11 68.4 155.76 68.53 154.23 68.56 149.18 68.58 136.38 68.61 133.32 68.61 149.33 68.71 157.15 68.82 153.86 68.95 144.06 68.98 132.24 68.92 137.82 68.95 141.49 68.98 144.35 69.11 141.27 69.13 149.59 69.23 144.62 69.32 134.21 69.32 145.95 69.42 144.73 69.4 148.67 69.5 147.54 69.55 136.03 69.61 153.02 69.71 148.74 69.74 149.33 69.76 141.47 69.82 147.55 69.84 153.16 69.94 147.11 69.97 141.58 69.95 150.93 70.07 145.88 70.1 152.28 70.23 144.53 70.2 151.81 70.23 155.93 70.36 155.02 70.41 153.57 70.47 143.25 70.54 148.94 70.62 155.52 70.73 151.44 70.73 152.61 70.76 145.83 70.83 150.18 70.86 144.79 70.89 138 70.94 151.93 71.1 143.49 71.04 146.2 71.12 153.81 71.22 152.97 71.25 148.65 71.25 158.6 71.48 154.19 71.44 155.65 71.56 146.63 71.51 148.23 71.62 146.49 71.64 133.84 71.67 132.38 71.61 138.07 71.65 145.9 71.75 143.68 71.77 153.99 71.85 154.15 71.96 149.59 72.01 151.16 71.98 144.2 72.11 149.07 72.19 144.67 72.16 153.42 72.3 144.52 72.24 147.3 72.27 153.57 72.3 154.92 72.4 149.37 72.48 132.22 72.43 135.51 72.45 143.43 72.48 148.87 72.61 148.71 72.58 150.72 72.69 149.33 72.72 145.18 72.74 132.92 72.77 145.3 72.87 144.15 72.89 155.28 73 154.15 73.02 155.89 73.16 152.19 73.26 127.03 73.34 155.17 73.47 157.87 73.6 157.07 73.63 155.24 73.71 142.8 73.76 157.84 73.79 158.73 74 153.27 74.02 154.16 74.02 149.36 74.17 152.26 74.21 140.03 74.34 156.03 74.44 153.81 74.46 149.08 74.59 157.57 74.73 155.12 74.91 135.1 74.85 141.96 74.96 157.76 74.99 158.38 75.2 155.9 75.22 153.34 75.25 158.52 75.54 159.18 75.72 158.55 75.95 156.08 76.03 150.76 76.06 143.6 76.17 155.98 76.4 154.07 76.45 156.21 76.63 154.79 76.69 152.77 76.74 138.51 76.76 157.62 76.92 153.79 77.03 157.47 77.21 158.12 77.21 154.68 77.34 157.23 77.42 140.21 77.37 146.2 77.45 157.84 77.65 155.89 77.68 157.51 77.84 153.41 77.86 141.17 77.89 135.74 77.83 139.35 77.91 156.27 78.02 134.35 78.04 129.18 78.15 153.7 78.25 150.5 78.28 145.51 78.28 157.73 78.38 158.43 78.56 156.43 78.62 149.87 78.62 155.57 78.75 146.17 78.77 135.37 78.8 157.68 78.98 156.01 79.14 158.45 79.72 156.54 79.82 129.14 79.77 135.59 79.87 156.53 79.95 157.36 79.98 158.01 80.35 153.35 80.37 149.99 80.45 158.3 80.63 157.55 80.79 150.5 81.16 158.66 81.5 156.22 81.71 155.12 81.91 158.24 82.22 156.18 82.2 157.16 82.35 158.26 82.78 155.57 82.85 133.57 82.8 140.67 82.83 145.99 82.85 152.32 82.96 150.93 82.98 149.89 82.98 157.98 83.14 154.18 83.17 150.76 83.19 158.26 83.54 157.43 83.61 147.69 83.71 150.97 83.77 131.79 83.74 137.27 83.76 144.59 83.9 137.47 83.87 141.58 84.03 157.76 84.24 154.59 84.29 147.67 84.37 157.71 84.63 158.16 84.57 156.75 84.86 157.54 84.89 158.26 85.51 158.81 85.96 157.54 86.25 156.51 86.33 158.71 86.67 157.92 86.77 140.33 86.85 157.82 86.91 158.54 87.55 158.98 87.84 158.19 88.54 159.05 88.63 149.63 88.65 131.5 88.71 123.64"/>
    <g>
      <circle class="cls-7" cx="146.8" cy="220.08" r="28.8"/>
      <g class="cls-21">
        <line class="cls-18" x1="125.67" y1="232.65" x2="168.03" y2="232.65"/>
        <line class="cls-1" x1="129.21" y1="218.47" x2="129.21" y2="232.79"/>
        <line class="cls-5" x1="129.84" y1="230.19" x2="129.84" y2="232.62"/>
        <line class="cls-5" x1="127.41" y1="230.17" x2="127.41" y2="232.6"/>
        <line class="cls-5" x1="127.06" y1="230.72" x2="127.06" y2="233.16"/>
        <line class="cls-5" x1="127.73" y1="230.96" x2="127.73" y2="233.39"/>
        <line class="cls-5" x1="129.24" y1="218.9" x2="129.24" y2="233.88"/>
        <line class="cls-5" x1="134.25" y1="198.68" x2="134.25" y2="234.03"/>
        <line class="cls-5" x1="133.03" y1="219.42" x2="133.03" y2="233.91"/>
        <line class="cls-5" x1="136.59" y1="219.48" x2="136.66" y2="233.91"/>
        <line class="cls-5" x1="139.37" y1="210.92" x2="139.37" y2="233.84"/>
        <line class="cls-5" x1="148.21" y1="198.68" x2="148.21" y2="234.03"/>
        <line class="cls-5" x1="155.2" y1="202.87" x2="155.2" y2="238.21"/>
        <line class="cls-5" x1="151.83" y1="204.49" x2="151.83" y2="239.84"/>
        <line class="cls-5" x1="158.39" y1="203.37" x2="158.39" y2="238.71"/>
        <line class="cls-5" x1="161.39" y1="204.43" x2="161.39" y2="239.78"/>
        <line class="cls-5" x1="164.01" y1="209.86" x2="164.01" y2="245.21"/>
        <line class="cls-5" x1="166.57" y1="219.48" x2="166.57" y2="254.83"/>
        <line class="cls-5" x1="157.95" y1="216.36" x2="157.95" y2="251.7"/>
        <line class="cls-5" x1="144.02" y1="208.24" x2="144.02" y2="243.58"/>
        <line class="cls-5" x1="143.53" y1="215.61" x2="143.53" y2="250.95"/>
        <line class="cls-5" x1="147.77" y1="218.42" x2="147.77" y2="253.76"/>
        <line class="cls-5" x1="147.4" y1="219.17" x2="147.4" y2="254.51"/>
        <line class="cls-5" x1="151.33" y1="211.49" x2="151.33" y2="246.83"/>
        <line class="cls-5" x1="151.02" y1="219.29" x2="151.02" y2="254.64"/>
        <line class="cls-5" x1="163.82" y1="210.67" x2="163.82" y2="246.02"/>
        <line class="cls-5" x1="164.38" y1="211.24" x2="164.38" y2="246.58"/>
        <line class="cls-5" x1="166.26" y1="220.35" x2="166.26" y2="255.7"/>
        <line class="cls-5" x1="153.77" y1="231.53" x2="153.77" y2="266.88"/>
        <line class="cls-5" x1="150.21" y1="231.66" x2="150.21" y2="267"/>
        <line class="cls-5" x1="150.71" y1="232.22" x2="150.71" y2="267.56"/>
        <line class="cls-5" x1="139.65" y1="211.42" x2="139.65" y2="246.77"/>
        <line class="cls-5" x1="134.84" y1="215.36" x2="134.84" y2="250.7"/>
        <line class="cls-5" x1="133.78" y1="212.42" x2="133.78" y2="247.77"/>
        <line class="cls-5" x1="131.6" y1="228.03" x2="131.6" y2="263.38"/>
        <line class="cls-5" x1="132.03" y1="228.91" x2="132.03" y2="264.26"/>
        <line class="cls-5" x1="131.29" y1="228.91" x2="131.29" y2="264.26"/>
        <line class="cls-5" x1="126.1" y1="231.66" x2="126.1" y2="267"/>
        <line class="cls-5" x1="128.6" y1="231.53" x2="128.6" y2="266.88"/>
        <line class="cls-5" x1="142.46" y1="231.59" x2="142.46" y2="266.94"/>
        <line class="cls-5" x1="142.15" y1="232.22" x2="142.15" y2="267.56"/>
        <line class="cls-5" x1="144.71" y1="231.09" x2="144.71" y2="266.44"/>
        <line class="cls-5" x1="145.02" y1="231.72" x2="145.02" y2="267.07"/>
        <line class="cls-5" x1="137.41" y1="229.03" x2="137.41" y2="264.38"/>
        <line class="cls-5" x1="137.84" y1="229.97" x2="137.84" y2="265.32"/>
        <line class="cls-5" x1="136.16" y1="231.09" x2="136.16" y2="266.44"/>
        <line class="cls-5" x1="132.66" y1="220.6" x2="132.66" y2="255.95"/>
        <line class="cls-5" x1="155.58" y1="207.11" x2="155.58" y2="242.46"/>
        <line class="cls-5" x1="158.89" y1="218.42" x2="158.89" y2="253.76"/>
        <line class="cls-5" x1="157.58" y1="224.73" x2="157.58" y2="260.07"/>
        <line class="cls-5" x1="160.76" y1="228.53" x2="160.76" y2="263.88"/>
        <line class="cls-5" x1="161.7" y1="220.48" x2="161.7" y2="255.82"/>
        <line class="cls-5" x1="166.94" y1="221.17" x2="166.94" y2="256.51"/>
        <line class="cls-5" x1="165.32" y1="232.22" x2="165.32" y2="267.56"/>
        <line class="cls-5" x1="162.82" y1="232.22" x2="162.82" y2="267.56"/>
        <line class="cls-5" x1="159.89" y1="232.28" x2="159.89" y2="267.63"/>
        <line class="cls-5" x1="140.65" y1="232.28" x2="140.65" y2="267.63"/>
        <line class="cls-5" x1="130.22" y1="231.66" x2="130.22" y2="267"/>
        <line class="cls-3" x1="125.34" y1="233.53" x2="167.99" y2="233.53"/>
      </g>
    </g>
    <text class="cls-15" transform="translate(130.59 137.37)"><tspan x="0" y="0">Core</tspan><tspan x="4.98" y="18">MS</tspan></text>
    <text class="cls-12" transform="translate(23.42 30.96)"><tspan x="0" y="0">Molecular Formula Reference Database</tspan></text>
    <text class="cls-12" transform="translate(89.93 262.11)"><tspan x="0" y="0">Metabolite MS/MS</tspan><tspan x="-32.88" y="16.8">Spectra Reference Database</tspan></text>
    <text class="cls-12" transform="translate(19.16 184.4)"><tspan x="0" y="0">Raw LC-MS/MS</tspan></text>
    <text class="cls-12" transform="translate(196.29 184.4)"><tspan x="0" y="0">Identified</tspan><tspan x="-7.37" y="16.8">Metabolites</tspan></text>
    <g>
      <g>
        <circle class="cls-7" cx="371.59" cy="142.37" r="28.8"/>
        <g>
          <rect class="cls-10" x="348.32" y="129.23" width="15.58" height="5.61"/>
          <g>
            <rect class="cls-10" x="375.76" y="129.23" width="9.04" height="5.61"/>
            <rect class="cls-10" x="385.83" y="129.23" width="9.04" height="5.61"/>
            <rect class="cls-10" x="365.7" y="129.23" width="9.04" height="5.61"/>
          </g>
          <g>
            <rect class="cls-10" x="348.32" y="136.63" width="15.58" height="5.61"/>
            <rect class="cls-10" x="348.32" y="143.27" width="15.58" height="5.61"/>
            <rect class="cls-10" x="348.32" y="149.91" width="15.58" height="5.61"/>
          </g>
          <g>
            <g>
              <rect class="cls-10" x="375.76" y="136.63" width="9.04" height="5.61"/>
              <rect class="cls-10" x="385.83" y="136.63" width="9.04" height="5.61"/>
              <rect class="cls-10" x="365.7" y="136.63" width="9.04" height="5.61"/>
            </g>
            <g>
              <rect class="cls-10" x="375.76" y="149.91" width="9.04" height="5.61"/>
              <rect class="cls-10" x="385.83" y="149.91" width="9.04" height="5.61"/>
              <rect class="cls-10" x="365.7" y="149.91" width="9.04" height="5.61"/>
            </g>
            <g>
              <rect class="cls-10" x="375.76" y="143.27" width="9.04" height="5.61"/>
              <rect class="cls-10" x="385.83" y="143.27" width="9.04" height="5.61"/>
              <rect class="cls-10" x="365.7" y="143.27" width="9.04" height="5.61"/>
            </g>
          </g>
        </g>
      </g>
      <text class="cls-12" transform="translate(339.49 184.4)"><tspan x="0" y="0">Metabolite</tspan><tspan x="-1.94" y="16.8">Data Table</tspan></text>
    </g>
    <g>
      <path class="cls-9" d="M139.53,109.75l5.44-12.16c.11-.25-.07-.52-.34-.52h-10.88c-.27,0-.45.28-.34.52l5.44,12.16c.13.29.55.29.68,0Z"/>
      <path class="cls-9" d="M154.76,97.29l5.44,12.16c.11.25-.07.52-.34.52h-10.88c-.27,0-.45-.28-.34-.52l5.44-12.16c.13-.29.55-.29.68,0Z"/>
    </g>
    <g>
      <rect class="cls-8" x="267.23" y="154.16" width="57.6" height="57.6" rx="9.6" ry="9.6"/>
      <text class="cls-13" transform="translate(280.5 162.69)"><tspan x="0" y="0">MS/MS</tspan><tspan x="-1.83" y="11.4">Spectral</tspan><tspan x="-3.65" y="22.8">Similarity</tspan><tspan x="3.16" y="34.2">Score</tspan><tspan x=".28" y="45.6">Control</tspan></text>
    </g>
    <g>
      <rect class="cls-8" x="267.23" y="72.98" width="57.6" height="57.6" rx="9.6" ry="9.6"/>
      <text class="cls-14" transform="translate(275.52 81.51)"><tspan class="cls-17"><tspan x="0" y="0">Molecular</tspan></tspan><tspan class="cls-17"><tspan x="3.15" y="11.4">Formula</tspan></tspan><tspan class="cls-19"><tspan x="-3.43" y="22.8">Confidence</tspan></tspan><tspan class="cls-17"><tspan x="8.14" y="34.2">Score</tspan></tspan><tspan class="cls-17"><tspan x="5.26" y="45.6">Control</tspan></tspan></text>
    </g>
    <path class="cls-9" d="M263.56,165.11l-7.81-10.79c-.16-.22-.49-.2-.62.03l-5.44,9.42c-.14.23.02.53.28.56l13.25,1.37c.32.03.53-.33.34-.59Z"/>
    <g>
      <path class="cls-9" d="M263.4,119.63l-7.81,10.79c-.16.22-.49.2-.62-.03l-5.44-9.42c-.14-.23.02-.53.28-.56l13.25-1.37c.32-.03.53.33.34.59Z"/>
      <path class="cls-9" d="M263.56,165.11l-7.81-10.79c-.16-.22-.49-.2-.62.03l-5.44,9.42c-.14.23.02.53.28.56l13.25,1.37c.32.03.53-.33.34-.59Z"/>
    </g>
    <path class="cls-9" d="M263.4,119.63l-7.81,10.79c-.16.22-.49.2-.62-.03l-5.44-9.42c-.14-.23.02-.53.28-.56l13.25-1.37c.32-.03.53.33.34.59Z"/>
    <g>
      <path class="cls-9" d="M263.4,119.63l-7.81,10.79c-.16.22-.49.2-.62-.03l-5.44-9.42c-.14-.23.02-.53.28-.56l13.25-1.37c.32-.03.53.33.34.59Z"/>
      <path class="cls-9" d="M263.56,165.11l-7.81-10.79c-.16-.22-.49-.2-.62.03l-5.44,9.42c-.14.23.02.53.28.56l13.25,1.37c.32.03.53-.33.34-.59Z"/>
    </g>
    <g>
      <path class="cls-9" d="M342.02,125.19l-13.25-1.37c-.27-.03-.42-.32-.28-.56l5.44-9.42c.14-.23.47-.25.62-.03l7.81,10.79c.19.26-.02.62-.34.59Z"/>
      <path class="cls-9" d="M342.02,159.56l-13.25,1.37c-.27.03-.42.32-.28.56l5.44,9.42c.14.23.47.25.62.03l7.81-10.79c.19-.26-.02-.62-.34-.59Z"/>
    </g>
    <g>
      <circle class="cls-6" cx="216.9" cy="142.75" r="4.06"/>
      <circle class="cls-2" cx="216.9" cy="142.75" r="4.06"/>
      <circle class="cls-6" cx="224" cy="156.44" r="4.06"/>
      <circle class="cls-2" cx="224" cy="156.44" r="4.06"/>
      <circle class="cls-16" cx="238.45" cy="155.17" r="4.06"/>
      <circle class="cls-2" cx="238.45" cy="155.17" r="4.06"/>
      <circle class="cls-11" cx="214.37" cy="128.3" r="4.06"/>
      <circle class="cls-2" cx="214.37" cy="128.3" r="4.06"/>
      <circle class="cls-6" cx="230.85" cy="142.24" r="4.06"/>
      <circle class="cls-2" cx="230.85" cy="142.24" r="4.06"/>
      <ellipse class="cls-6" cx="210.69" cy="136.67" rx="4.18" ry="4.06"/>
      <ellipse class="cls-2" cx="210.69" cy="136.67" rx="4.18" ry="4.06"/>
      <circle class="cls-6" cx="223.75" cy="137.17" r="4.06"/>
      <circle class="cls-2" cx="223.75" cy="137.17" r="4.06"/>
      <circle class="cls-6" cx="230.85" cy="150.61" r="4.06"/>
      <circle class="cls-2" cx="230.85" cy="150.61" r="4.06"/>
      <circle class="cls-6" cx="216.9" cy="151.12" r="4.06"/>
      <circle class="cls-2" cx="216.9" cy="151.12" r="4.06"/>
    </g>
  </g>
</svg>