<?xml version="1.0" encoding="UTF-8"?>
<svg id="Layer_1" xmlns="http://www.w3.org/2000/svg" xmlns:xlink="http://www.w3.org/1999/xlink" viewBox="0 0 424.8 288">
  <defs>
    <style>
      .cls-1 {
        fill: #4a71b7;
      }

      .cls-1, .cls-2, .cls-3, .cls-4, .cls-5, .cls-6, .cls-7 {
        stroke-miterlimit: 8;
      }

      .cls-1, .cls-3, .cls-6 {
        stroke-width: 3px;
      }

      .cls-1, .cls-4 {
        stroke: #4971b8;
      }

      .cls-8, .cls-2, .cls-3, .cls-4, .cls-5, .cls-7 {
        fill: none;
      }

      .cls-2, .cls-6 {
        stroke: #bf2026;
      }

      .cls-9 {
        fill: #e78424;
      }

      .cls-9, .cls-10, .cls-11 {
        stroke-miterlimit: 10;
        stroke-width: 2px;
      }

      .cls-9, .cls-11 {
        stroke: #000001;
      }

      .cls-3, .cls-7 {
        stroke: #21409a;
      }

      .cls-12 {
        fill: #000001;
      }

      .cls-10 {
        fill: #442d7c;
        stroke: #452d7c;
      }

      .cls-5 {
        stroke: #2b3990;
        stroke-width: .5px;
      }

      .cls-13 {
        fill: #231f20;
        font-size: 14px;
        letter-spacing: 0em;
      }

      .cls-13, .cls-14, .cls-15, .cls-16 {
        font-family: ArialMT, Arial;
      }

      .cls-6 {
        fill: #be2227;
      }

      .cls-14, .cls-17 {
        letter-spacing: 0em;
      }

      .cls-14, .cls-15 {
        font-size: 9.5px;
      }

      .cls-14, .cls-15, .cls-16 {
        fill: #f1f2f2;
      }

      .cls-11 {
        fill: #ec4924;
        fill-rule: evenodd;
      }

      .cls-18 {
        fill: #21409a;
      }

      .cls-19 {
        letter-spacing: 0em;
      }

      .cls-20 {
        fill: #82d4f1;
      }

      .cls-21 {
        clip-path: url(#clippath);
      }

      .cls-16 {
        font-size: 15px;
        letter-spacing: 0em;
      }

      .cls-7 {
        stroke-width: .75px;
      }
    </style>
    <clipPath id="clippath">
      <rect class="cls-8" x="126.94" y="198.93" width="43.2" height="36.04"/>
    </clipPath>
  </defs>
  <rect class="cls-20" x="0" y="0" width="424.8" height="288" rx="18" ry="18"/>
  <g>
    <circle class="cls-9" cx="226.25" cy="143.57" r="28.8"/>
    <path class="cls-4" d="M236.3,121.02c-.47,1.16-1.19,3.12-1.64,4.08-.31.65-.93.3-1.49.1-.68-.27-1.66-.66-2.32-.92-.44-.16-.73-.25-.94-.15-.2.08-.33.32-.49.69-.34.84-.77,1.88-1.07,2.76-.27.87-.04.9-.71.56-1.1-.42-2.53-1.2-3.63-1.33-.69.24-.9,1.7-1.26,2.38-.38.79-.55,2.29-1.67,1.72-.94-.36-2.12-.81-3.01-1.21-.67-.34-.44-.31-.71.56-.3.87-.7,1.81-1.03,2.66-.3.77-.55.97-1.18.75-.81-.27-2.5-1.01-3.24-1.25-.27-.08-.55-.11-.75.13-.53.84-.91,2.2-1.35,3.21-.45.89-.14,1.75.3,2.59.49,1.11.84,1.79,2.19,2.19.9.32,1.96.83,2.84,1.03.79.05.87-1.17,1.23-1.85.26-.66.53-1.46.81-2.02.14-.25.28-.4.56-.39,1.04.22,2.8.98,3.6,1.35.5.28.48.36.64-.27.23-.73.74-2,1.02-2.73.3-.77.47-1.1,1.12-.9.99.24,2.71,1.21,3.78,1.28.49-.15.55-.71.77-1.18.25-.67.65-1.67.87-2.32.18-.43.1-.73.34-.66.98.52,2.71,1.24,3.96,1.55.6-.03.65-.67.9-1.19.28-.71.66-1.77.94-2.43.18-.42.34-.63.62-.64,1.38.26,3.02,1.12,4.39,1.57"/>
    <path class="cls-1" d="M210.48,138.96c.58,3.86-5.09,4.84-5.8.97-.51-3.74,4.9-4.73,5.78-1.08l.02.1Z"/>
    <path class="cls-2" d="M226.31,166.12c0-1.44-.31-3.24-.1-4.62.23-.46.75-.38,1.26-.44.71-.04,1.74-.08,2.44-.12.46-.03.76-.09.92-.27.32-.42.14-1.23.14-1.85-.04-.7-.04-1.46-.15-2.14-.12-.67-.15-.56.68-.56,1.09-.08,2.62.05,3.59-.31.54-.5.15-1.88.2-2.65,0-.88-.39-2.27.84-2.24.99-.07,2.21-.14,3.17-.14.74.03.57.05.45-.83-.09-.89-.11-1.89-.15-2.77-.04-.81.12-1.11.79-1.18.84-.1,2.63-.11,3.4-.21.29-.04.55-.15.64-.44.16-1.02-.06-2.58-.09-3.63-.03-.27-.07-.5-.17-.74-.35-.75-1.15-1.26-1.78-1.8-.72-.64-1.51-.63-2.53-.55-.82.07-1.85.05-2.62.21-.39.1-.51.33-.52.82,0,.96.15,2.33.15,3.31.05.72-.49.88-1.09.91-.9.05-2.42.18-3.05.13-.57-.05-.61-.09-.5.55.09.74.14,2.06.19,2.83.07,1.11-.15,1.29-1.2,1.35-.7.05-1.73.1-2.44.15-.42.05-.77.03-1.03.29-.19.22-.17.54-.17.83.04.84.11,2.4.19,3.06.03.31.18.66-.29.56-.99-.02-2.87-.04-4.04.28-.46.3-.29.88-.3,1.42.03.74.12,1.83.13,2.53,0,.45-.07.71-.32.84-1.35.36-3.17.23-4.61.39"/>
    <path class="cls-6" d="M242.46,139.14c-2.05-3.15,2.38-6.39,4.75-3.46,2.32,3.17-2.28,6.62-4.68,3.54l-.06-.09Z"/>
    <path class="cls-11" d="M115.92,143.91l-12.16,5.44c-.25.11-.52-.07-.52-.34v-10.88c0-.27.28-.45.52-.34l12.16,5.44c.29.13.29.55,0,.68Z"/>
    <rect class="cls-10" x="119.74" y="114.77" width="57.6" height="57.6" rx="9.6" ry="9.6"/>
    <path class="cls-11" d="M193.62,143.91l-12.16,5.44c-.25.11-.52-.07-.52-.34v-10.88c0-.27.28-.45.52-.34l12.16,5.44c.29.13.29.55,0,.68Z"/>
    <g>
      <circle class="cls-9" cx="148.54" cy="65.86" r="28.8"/>
      <g>
        <rect class="cls-12" x="125.27" y="52.72" width="15.58" height="5.61"/>
        <g>
          <rect class="cls-12" x="152.71" y="52.72" width="9.04" height="5.61"/>
          <rect class="cls-12" x="162.78" y="52.72" width="9.04" height="5.61"/>
          <rect class="cls-12" x="142.65" y="52.72" width="9.04" height="5.61"/>
        </g>
        <g>
          <rect class="cls-12" x="125.27" y="60.13" width="15.58" height="5.61"/>
          <rect class="cls-12" x="125.27" y="66.76" width="15.58" height="5.61"/>
          <rect class="cls-12" x="125.27" y="73.4" width="15.58" height="5.61"/>
        </g>
        <g>
          <g>
            <rect class="cls-12" x="152.71" y="60.13" width="9.04" height="5.61"/>
            <rect class="cls-12" x="162.78" y="60.13" width="9.04" height="5.61"/>
            <rect class="cls-12" x="142.65" y="60.13" width="9.04" height="5.61"/>
          </g>
          <g>
            <rect class="cls-12" x="152.71" y="73.4" width="9.04" height="5.61"/>
            <rect class="cls-12" x="162.78" y="73.4" width="9.04" height="5.61"/>
            <rect class="cls-12" x="142.65" y="73.4" width="9.04" height="5.61"/>
          </g>
          <g>
            <rect class="cls-12" x="152.71" y="66.76" width="9.04" height="5.61"/>
            <rect class="cls-12" x="162.78" y="66.76" width="9.04" height="5.61"/>
            <rect class="cls-12" x="142.65" y="66.76" width="9.04" height="5.61"/>
          </g>
        </g>
      </g>
    </g>
    <path class="cls-11" d="M148.88,176.19l5.44,12.16c.11.25-.07.52-.34.52h-10.88c-.27,0-.45-.28-.34-.52l5.44-12.16c.13-.29.55-.29.68,0Z"/>
    <circle class="cls-9" cx="70.83" cy="143.57" r="28.8"/>
    <polyline class="cls-5" points="48.69 158.7 49.48 159.68 50.28 158.69 50.3 157.8 50.33 159.62 50.93 158.75 51.11 156.33 51.17 159.76 51.42 156.78 51.67 158.85 51.72 159.53 51.71 155.31 51.89 157.43 52.08 159.98 52.42 158.86 52.5 155.19 52.68 155.43 52.73 157.56 52.87 154.32 53.02 159.84 53.31 159.19 53.36 154.65 53.7 159.77 53.83 157.97 53.88 155.78 53.94 149.33 53.93 159.29 54.09 155.25 54.3 158.07 54.33 151.15 54.3 152.62 54.41 149.92 54.67 159.61 54.78 158.38 54.8 145.22 54.8 155.2 54.95 151.63 54.93 154.04 54.96 156.72 55.06 153.66 55.08 143.18 55.14 142.29 55.17 155.98 55.32 157.64 55.43 156.63 55.53 150.76 55.58 141.12 55.74 159.54 56.15 156.28 56.19 151.93 56.13 152.97 56.29 141.88 56.24 147.03 56.34 158.75 56.52 157.1 56.57 153.95 56.7 158.54 56.81 156.91 56.94 158.08 56.91 147.7 57.05 156.47 57.07 149.22 57.1 148.01 57.2 145.13 57.2 157.58 57.33 155.23 57.33 157.9 57.52 148.5 57.46 152.94 57.62 150.12 57.67 156.15 57.81 151.99 57.83 148.3 57.99 157.1 58.12 146.13 58.07 151.08 58.09 154.12 58.3 149.44 58.38 149.89 58.4 143.23 58.49 158.45 58.59 157.71 58.64 156.15 58.9 150.45 58.85 151.92 58.87 157.06 58.9 157.86 59.01 158.65 59.11 156.26 59.11 156.37 59.14 153.9 59.24 154.61 59.35 148.89 59.4 137.11 59.37 156.38 59.47 154.28 59.51 149.19 59.53 148.38 59.55 137.23 59.58 133.55 59.61 146.04 59.69 149.89 59.81 140.86 59.77 141.52 59.84 153.48 59.97 147.35 60 153.7 60.13 151.3 60.16 148.82 60.1 153.88 60.13 156.99 60.39 157.56 60.31 152.88 60.5 156.43 60.58 143.05 60.55 149.52 60.65 145.36 60.68 144.54 60.63 150.58 60.65 154.91 60.76 152.17 60.78 148.17 60.84 136.98 60.81 138.11 60.94 155.71 61.07 149.07 61.2 150.68 61.26 157.16 61.38 151.52 61.43 154.94 61.51 156.68 61.54 157.5 61.65 154.79 61.72 155.32 61.8 140.61 61.8 151.81 61.93 144.69 61.96 136.98 62.04 155.38 62.16 153.86 62.2 150.53 62.19 158.15 62.33 154.76 62.35 149.63 62.62 152.98 62.77 146.56 62.82 149.43 62.9 143.97 62.95 156.21 63.05 157.24 63.08 150.93 63.16 155.99 63.16 156.49 63.32 146.27 63.34 141.57 63.37 126.42 63.32 133.88 63.34 144.81 63.37 153.13 63.63 146.37 63.66 156.69 63.76 152.71 63.78 151.38 63.82 145.83 63.81 156.43 63.95 153.84 64.05 134.78 64.02 141.79 64.05 151.42 64.26 143.25 64.21 148.94 64.23 154.76 64.36 154.09 64.33 155.12 64.47 146.49 64.52 157.21 64.62 152 64.65 139.02 64.6 142.55 64.62 146.62 64.65 152.91 64.67 154.74 64.78 154.04 64.81 151.31 64.83 144.98 64.88 156.21 64.99 149.32 65.02 142.37 65.04 158.05 65.25 151.15 65.2 152.73 65.23 156.25 65.41 145.94 65.38 151.19 65.41 155.96 65.52 155.27 65.54 154.48 65.57 146.92 65.59 144.99 65.67 139.01 65.64 147.4 65.75 142.8 65.78 148.31 65.85 157.31 65.98 156.39 66.06 147.7 66.14 149.1 66.17 142.67 66.3 151.03 66.43 146.59 66.45 133.18 66.48 128.52 66.43 133.55 66.45 142.84 66.48 148.64 66.58 156.15 66.82 147.03 66.85 130.49 66.9 152.09 66.92 155.14 67.03 149.12 67.06 142.89 67.08 158.13 67.24 135.3 67.24 145.86 67.27 150.07 67.29 150.86 67.39 146.71 67.63 154.35 67.65 156.69 67.76 150.42 67.76 153.79 67.78 157.18 67.89 154.98 67.92 150.24 67.94 158.33 68.07 144.67 68.13 142.39 68.13 155.97 68.26 153.68 68.28 152.2 68.39 134.06 68.34 137.47 68.41 153.71 68.55 151.02 68.55 156.73 68.68 146.84 68.62 148.5 68.72 146.44 68.68 151.37 68.75 159.1 68.93 155.28 68.97 144.45 68.99 135.41 68.94 141.39 68.96 153.92 68.99 156.81 69.12 143.28 69.06 147.26 69.17 145.65 69.22 135.37 69.23 151.91 69.33 150.71 69.38 156.65 69.56 153.56 69.54 156.72 69.61 156.81 69.67 155.89 69.72 155.96 69.88 152.75 69.9 153.24 70.06 145.5 70.01 147.08 70.11 146.31 70.14 156.96 70.27 155.43 70.29 150.38 70.32 137.58 70.35 134.52 70.35 150.53 70.45 158.35 70.56 155.06 70.69 145.26 70.71 133.44 70.66 139.02 70.68 142.69 70.72 145.55 70.84 142.47 70.87 150.79 70.97 145.82 71.05 135.41 71.05 147.15 71.16 145.93 71.13 149.87 71.24 148.74 71.29 137.23 71.34 154.22 71.45 149.94 71.47 150.53 71.5 142.67 71.55 148.75 71.58 154.36 71.68 148.31 71.7 142.78 71.68 152.13 71.81 147.08 71.84 153.48 71.97 145.73 71.94 153.01 71.96 157.13 72.1 156.22 72.15 154.77 72.2 144.45 72.28 150.14 72.36 156.72 72.46 152.64 72.46 153.81 72.49 147.03 72.57 151.38 72.6 146 72.62 139.2 72.67 153.13 72.83 144.69 72.78 147.4 72.86 155.01 72.96 154.17 72.99 149.85 72.99 159.8 73.22 155.39 73.17 156.85 73.3 147.83 73.25 149.43 73.36 147.69 73.38 135.04 73.4 133.58 73.35 139.27 73.38 147.1 73.49 144.88 73.51 155.19 73.58 155.35 73.69 150.79 73.75 152.36 73.72 145.4 73.85 150.27 73.93 145.87 73.9 154.62 74.03 145.72 73.98 148.5 74 154.77 74.04 156.12 74.14 150.57 74.22 133.42 74.16 136.71 74.19 144.63 74.21 150.07 74.35 149.91 74.32 151.92 74.43 150.53 74.45 146.38 74.48 134.12 74.5 146.5 74.61 145.35 74.63 156.48 74.73 155.35 74.76 157.09 74.9 153.39 75 128.23 75.07 156.37 75.21 159.07 75.34 158.27 75.36 156.44 75.44 144 75.49 159.04 75.53 159.93 75.73 154.47 75.76 155.36 75.76 150.56 75.91 153.46 75.94 141.23 76.07 157.23 76.18 155.01 76.2 150.28 76.33 158.77 76.47 156.32 76.64 136.3 76.59 143.16 76.69 158.96 76.73 159.58 76.93 157.1 76.96 154.54 76.98 159.72 77.28 160.38 77.46 159.75 77.69 157.28 77.77 151.96 77.8 144.8 77.9 157.18 78.13 155.27 78.18 157.41 78.37 155.99 78.42 153.97 78.47 139.71 78.5 158.82 78.66 154.99 78.76 158.67 78.94 159.32 78.95 155.88 79.08 158.43 79.16 141.41 79.1 147.4 79.18 159.04 79.39 157.09 79.42 158.71 79.58 154.61 79.6 142.37 79.62 136.94 79.57 140.55 79.65 157.47 79.75 135.55 79.78 130.38 79.88 154.9 79.99 151.7 80.02 146.71 80.01 158.93 80.12 159.63 80.3 157.63 80.36 151.07 80.36 156.77 80.49 147.37 80.51 136.57 80.54 158.88 80.72 157.21 80.88 159.65 81.45 157.74 81.56 130.34 81.5 136.79 81.61 157.73 81.69 158.56 81.71 159.21 82.08 154.55 82.11 151.19 82.19 159.5 82.37 158.75 82.53 151.7 82.89 159.86 83.23 157.42 83.44 156.32 83.65 159.44 83.96 157.38 83.94 158.36 84.09 159.46 84.52 156.77 84.59 134.77 84.53 141.88 84.57 147.19 84.59 153.52 84.69 152.13 84.72 151.09 84.72 159.18 84.88 155.38 84.9 151.96 84.93 159.46 85.27 158.63 85.35 148.89 85.45 152.17 85.51 132.99 85.48 138.47 85.5 145.79 85.64 138.67 85.61 142.78 85.77 158.96 85.97 155.79 86.03 148.88 86.1 158.91 86.37 159.36 86.31 157.95 86.6 158.74 86.63 159.46 87.25 160.01 87.7 158.74 87.99 157.71 88.06 159.91 88.4 159.12 88.51 141.53 88.59 159.02 88.64 159.74 89.29 160.18 89.58 159.39 90.28 160.25 90.36 150.83 90.39 132.7 90.45 124.85"/>
    <g>
      <circle class="cls-9" cx="148.54" cy="221.28" r="28.8"/>
      <g class="cls-21">
        <line class="cls-18" x1="127.4" y1="233.85" x2="169.76" y2="233.85"/>
        <line class="cls-8" x1="130.95" y1="219.67" x2="130.95" y2="233.99"/>
        <line class="cls-7" x1="131.58" y1="231.39" x2="131.58" y2="233.82"/>
        <line class="cls-7" x1="129.14" y1="231.37" x2="129.14" y2="233.8"/>
        <line class="cls-7" x1="128.8" y1="231.93" x2="128.8" y2="234.36"/>
        <line class="cls-7" x1="129.46" y1="232.16" x2="129.46" y2="234.59"/>
        <line class="cls-7" x1="130.98" y1="220.11" x2="130.98" y2="235.08"/>
        <line class="cls-7" x1="135.99" y1="199.88" x2="135.99" y2="235.23"/>
        <line class="cls-7" x1="134.77" y1="220.62" x2="134.77" y2="235.11"/>
        <line class="cls-7" x1="138.33" y1="220.68" x2="138.39" y2="235.11"/>
        <line class="cls-7" x1="141.11" y1="212.12" x2="141.11" y2="235.04"/>
        <line class="cls-7" x1="149.95" y1="199.88" x2="149.95" y2="235.23"/>
        <line class="cls-7" x1="156.94" y1="204.07" x2="156.94" y2="239.41"/>
        <line class="cls-7" x1="153.57" y1="205.69" x2="153.57" y2="241.04"/>
        <line class="cls-7" x1="160.12" y1="204.57" x2="160.12" y2="239.91"/>
        <line class="cls-7" x1="163.12" y1="205.63" x2="163.12" y2="240.98"/>
        <line class="cls-7" x1="165.75" y1="211.06" x2="165.75" y2="246.41"/>
        <line class="cls-7" x1="168.31" y1="220.68" x2="168.31" y2="256.03"/>
        <line class="cls-7" x1="159.69" y1="217.56" x2="159.69" y2="252.9"/>
        <line class="cls-7" x1="145.76" y1="209.44" x2="145.76" y2="244.78"/>
        <line class="cls-7" x1="145.26" y1="216.81" x2="145.26" y2="252.15"/>
        <line class="cls-7" x1="149.51" y1="219.62" x2="149.51" y2="254.96"/>
        <line class="cls-7" x1="149.13" y1="220.37" x2="149.13" y2="255.71"/>
        <line class="cls-7" x1="153.07" y1="212.69" x2="153.07" y2="248.03"/>
        <line class="cls-7" x1="152.76" y1="220.49" x2="152.76" y2="255.84"/>
        <line class="cls-7" x1="165.56" y1="211.87" x2="165.56" y2="247.22"/>
        <line class="cls-7" x1="166.12" y1="212.44" x2="166.12" y2="247.78"/>
        <line class="cls-7" x1="167.99" y1="221.55" x2="167.99" y2="256.9"/>
        <line class="cls-7" x1="155.5" y1="232.73" x2="155.5" y2="268.08"/>
        <line class="cls-7" x1="151.94" y1="232.86" x2="151.94" y2="268.2"/>
        <line class="cls-7" x1="152.44" y1="233.42" x2="152.44" y2="268.77"/>
        <line class="cls-7" x1="141.39" y1="212.62" x2="141.39" y2="247.97"/>
        <line class="cls-7" x1="136.58" y1="216.56" x2="136.58" y2="251.9"/>
        <line class="cls-7" x1="135.52" y1="213.62" x2="135.52" y2="248.97"/>
        <line class="cls-7" x1="133.33" y1="229.23" x2="133.33" y2="264.58"/>
        <line class="cls-7" x1="133.77" y1="230.11" x2="133.77" y2="265.46"/>
        <line class="cls-7" x1="133.02" y1="230.11" x2="133.02" y2="265.46"/>
        <line class="cls-7" x1="127.84" y1="232.86" x2="127.84" y2="268.2"/>
        <line class="cls-7" x1="130.34" y1="232.73" x2="130.34" y2="268.08"/>
        <line class="cls-7" x1="144.2" y1="232.79" x2="144.2" y2="268.14"/>
        <line class="cls-7" x1="143.89" y1="233.42" x2="143.89" y2="268.77"/>
        <line class="cls-7" x1="146.45" y1="232.29" x2="146.45" y2="267.64"/>
        <line class="cls-7" x1="146.76" y1="232.92" x2="146.76" y2="268.27"/>
        <line class="cls-7" x1="139.14" y1="230.23" x2="139.14" y2="265.58"/>
        <line class="cls-7" x1="139.58" y1="231.17" x2="139.58" y2="266.52"/>
        <line class="cls-7" x1="137.89" y1="232.29" x2="137.89" y2="267.64"/>
        <line class="cls-7" x1="134.4" y1="221.8" x2="134.4" y2="257.15"/>
        <line class="cls-7" x1="157.31" y1="208.31" x2="157.31" y2="243.66"/>
        <line class="cls-7" x1="160.62" y1="219.62" x2="160.62" y2="254.96"/>
        <line class="cls-7" x1="159.31" y1="225.93" x2="159.31" y2="261.27"/>
        <line class="cls-7" x1="162.5" y1="229.73" x2="162.5" y2="265.08"/>
        <line class="cls-7" x1="163.43" y1="221.68" x2="163.43" y2="257.02"/>
        <line class="cls-7" x1="168.68" y1="222.37" x2="168.68" y2="257.71"/>
        <line class="cls-7" x1="167.06" y1="233.42" x2="167.06" y2="268.77"/>
        <line class="cls-7" x1="164.56" y1="233.42" x2="164.56" y2="268.77"/>
        <line class="cls-7" x1="161.62" y1="233.48" x2="161.62" y2="268.83"/>
        <line class="cls-7" x1="142.39" y1="233.48" x2="142.39" y2="268.83"/>
        <line class="cls-7" x1="131.96" y1="232.86" x2="131.96" y2="268.2"/>
        <line class="cls-3" x1="127.08" y1="234.73" x2="169.73" y2="234.73"/>
      </g>
    </g>
    <text class="cls-16" transform="translate(132.33 138.57)"><tspan x="0" y="0">Core</tspan><tspan x="4.98" y="18">MS</tspan></text>
    <text class="cls-13" transform="translate(25.16 32.16)"><tspan x="0" y="0">Molecular Formula Reference Database</tspan></text>
    <text class="cls-13" transform="translate(17.42 263.31)"><tspan x="0" y="0">Lipid MS/MS Spectra Reference Database</tspan></text>
    <text class="cls-13" transform="translate(20.89 185.6)"><tspan x="0" y="0">Raw LC-MS/MS</tspan></text>
    <text class="cls-13" transform="translate(198.03 185.6)"><tspan x="0" y="0">Identified</tspan><tspan x="10.04" y="16.8">Lipids</tspan></text>
    <g>
      <g>
        <circle class="cls-9" cx="373.33" cy="143.57" r="28.8"/>
        <g>
          <rect class="cls-12" x="350.05" y="130.43" width="15.58" height="5.61"/>
          <g>
            <rect class="cls-12" x="377.5" y="130.43" width="9.04" height="5.61"/>
            <rect class="cls-12" x="387.56" y="130.43" width="9.04" height="5.61"/>
            <rect class="cls-12" x="367.44" y="130.43" width="9.04" height="5.61"/>
          </g>
          <g>
            <rect class="cls-12" x="350.05" y="137.84" width="15.58" height="5.61"/>
            <rect class="cls-12" x="350.05" y="144.47" width="15.58" height="5.61"/>
            <rect class="cls-12" x="350.05" y="151.11" width="15.58" height="5.61"/>
          </g>
          <g>
            <g>
              <rect class="cls-12" x="377.5" y="137.84" width="9.04" height="5.61"/>
              <rect class="cls-12" x="387.56" y="137.84" width="9.04" height="5.61"/>
              <rect class="cls-12" x="367.44" y="137.84" width="9.04" height="5.61"/>
            </g>
            <g>
              <rect class="cls-12" x="377.5" y="151.11" width="9.04" height="5.61"/>
              <rect class="cls-12" x="387.56" y="151.11" width="9.04" height="5.61"/>
              <rect class="cls-12" x="367.44" y="151.11" width="9.04" height="5.61"/>
            </g>
            <g>
              <rect class="cls-12" x="377.5" y="144.47" width="9.04" height="5.61"/>
              <rect class="cls-12" x="387.56" y="144.47" width="9.04" height="5.61"/>
              <rect class="cls-12" x="367.44" y="144.47" width="9.04" height="5.61"/>
            </g>
          </g>
        </g>
      </g>
      <text class="cls-13" transform="translate(358.62 185.6)"><tspan x="0" y="0">Lipid</tspan><tspan x="-19.35" y="16.8">Data Table</tspan></text>
    </g>
    <g>
      <path class="cls-11" d="M141.27,110.95l5.44-12.16c.11-.25-.07-.52-.34-.52h-10.88c-.27,0-.45.28-.34.52l5.44,12.16c.13.29.55.29.68,0Z"/>
      <path class="cls-11" d="M156.49,98.49l5.44,12.16c.11.25-.07.52-.34.52h-10.88c-.27,0-.45-.28-.34-.52l5.44-12.16c.13-.29.55-.29.68,0Z"/>
    </g>
    <g>
      <rect class="cls-10" x="268.97" y="155.36" width="57.6" height="57.6" rx="9.6" ry="9.6"/>
      <text class="cls-14" transform="translate(282.24 163.9)"><tspan x="0" y="0">MS/MS</tspan><tspan x="-1.83" y="11.4">Spectral</tspan><tspan x="-3.65" y="22.8">Similarity</tspan><tspan x="3.16" y="34.2">Score</tspan><tspan x=".28" y="45.6">Control</tspan></text>
    </g>
    <g>
      <rect class="cls-10" x="268.97" y="74.18" width="57.6" height="57.6" rx="9.6" ry="9.6"/>
      <text class="cls-15" transform="translate(277.26 82.71)"><tspan class="cls-17"><tspan x="0" y="0">Molecular</tspan></tspan><tspan class="cls-17"><tspan x="3.15" y="11.4">Formula</tspan></tspan><tspan class="cls-19"><tspan x="-3.43" y="22.8">Confidence</tspan></tspan><tspan class="cls-17"><tspan x="8.14" y="34.2">Score</tspan></tspan><tspan class="cls-17"><tspan x="5.26" y="45.6">Control</tspan></tspan></text>
    </g>
    <path class="cls-11" d="M265.3,166.31l-7.81-10.79c-.16-.22-.49-.2-.62.03l-5.44,9.42c-.14.23.02.53.28.56l13.25,1.37c.32.03.53-.33.34-.59Z"/>
    <g>
      <path class="cls-11" d="M265.14,120.83l-7.81,10.79c-.16.22-.49.2-.62-.03l-5.44-9.42c-.14-.23.02-.53.28-.56l13.25-1.37c.32-.03.53.33.34.59Z"/>
      <path class="cls-11" d="M265.3,166.31l-7.81-10.79c-.16-.22-.49-.2-.62.03l-5.44,9.42c-.14.23.02.53.28.56l13.25,1.37c.32.03.53-.33.34-.59Z"/>
    </g>
    <path class="cls-11" d="M265.14,120.83l-7.81,10.79c-.16.22-.49.2-.62-.03l-5.44-9.42c-.14-.23.02-.53.28-.56l13.25-1.37c.32-.03.53.33.34.59Z"/>
    <g>
      <path class="cls-11" d="M265.14,120.83l-7.81,10.79c-.16.22-.49.2-.62-.03l-5.44-9.42c-.14-.23.02-.53.28-.56l13.25-1.37c.32-.03.53.33.34.59Z"/>
      <path class="cls-11" d="M265.3,166.31l-7.81-10.79c-.16-.22-.49-.2-.62.03l-5.44,9.42c-.14.23.02.53.28.56l13.25,1.37c.32.03.53-.33.34-.59Z"/>
    </g>
    <g>
      <path class="cls-11" d="M343.76,126.39l-13.25-1.37c-.27-.03-.42-.32-.28-.56l5.44-9.42c.14-.23.47-.25.62-.03l7.81,10.79c.19.26-.02.62-.34.59Z"/>
      <path class="cls-11" d="M343.76,160.76l-13.25,1.37c-.27.03-.42.32-.28.56l5.44,9.42c.14.23.47.25.62.03l7.81-10.79c.19-.26-.02-.62-.34-.59Z"/>
    </g>
  </g>
</svg>