<?xml version="1.0" encoding="UTF-8"?>
<svg id="Layer_1" xmlns="http://www.w3.org/2000/svg" xmlns:xlink="http://www.w3.org/1999/xlink" viewBox="0 0 433.32 287.55">
  <defs>
    <style>
      .cls-1, .cls-2, .cls-3, .cls-4, .cls-5 {
        fill: none;
      }

      .cls-6 {
        fill: #fdbe11;
      }

      .cls-2 {
        stroke: #16498a;
      }

      .cls-2, .cls-3, .cls-4, .cls-5 {
        stroke-miterlimit: 8;
      }

      .cls-7 {
        fill: #e78424;
      }

      .cls-7, .cls-8, .cls-9 {
        stroke-miterlimit: 10;
        stroke-width: 2px;
      }

      .cls-7, .cls-9 {
        stroke: #000001;
      }

      .cls-10 {
        font-size: 36px;
      }

      .cls-10, .cls-11, .cls-12, .cls-13 {
        font-family: ArialMT, Arial;
      }

      .cls-10, .cls-12 {
        fill: #231f20;
      }

      .cls-3 {
        stroke-width: 3px;
      }

      .cls-3, .cls-5 {
        stroke: #21409a;
      }

      .cls-14 {
        fill: #000001;
      }

      .cls-11 {
        font-size: 12px;
        letter-spacing: 0em;
      }

      .cls-11, .cls-13 {
        fill: #f1f2f2;
      }

      .cls-15 {
        fill: #ed1c24;
      }

      .cls-8 {
        fill: #442d7c;
        stroke: #452d7c;
      }

      .cls-4 {
        stroke: #2b3990;
        stroke-width: .5px;
      }

      .cls-16 {
        fill: #3d6cb4;
      }

      .cls-12 {
        letter-spacing: 0em;
      }

      .cls-12, .cls-13 {
        font-size: 15px;
      }

      .cls-9 {
        fill: #ec4924;
        fill-rule: evenodd;
      }

      .cls-17 {
        fill: #21409a;
      }

      .cls-18 {
        fill: #82d4f1;
      }

      .cls-19 {
        clip-path: url(#clippath);
      }

      .cls-13 {
        letter-spacing: 0em;
      }

      .cls-5 {
        stroke-width: .75px;
      }
    </style>
    <clipPath id="clippath">
      <rect class="cls-1" x="119.16" y="198.95" width="43.2" height="36.04"/>
    </clipPath>
  </defs>
  <rect class="cls-18" x="4.17" y="3.35" width="424.8" height="280.8" rx="18" ry="18"/>
  <path class="cls-9" d="M108.14,143.93l-12.16,5.44c-.25.11-.52-.07-.52-.34v-10.88c0-.27.28-.45.52-.34l12.16,5.44c.29.13.29.55,0,.68Z"/>
  <rect class="cls-8" x="111.96" y="114.79" width="57.6" height="57.6" rx="9.6" ry="9.6"/>
  <circle class="cls-7" cx="218.46" cy="143.59" r="28.8"/>
  <path class="cls-9" d="M263.55,143.93l-12.16,5.44c-.25.11-.52-.07-.52-.34v-10.88c0-.27.28-.45.52-.34l12.16,5.44c.29.13.29.55,0,.68Z"/>
  <rect class="cls-8" x="267.37" y="114.79" width="57.6" height="57.6" rx="9.6" ry="9.6"/>
  <path class="cls-9" d="M185.84,143.93l-12.16,5.44c-.25.11-.52-.07-.52-.34v-10.88c0-.27.28-.45.52-.34l12.16,5.44c.29.13.29.55,0,.68Z"/>
  <path class="cls-9" d="M341.26,143.93l-12.16,5.44c-.25.11-.52-.07-.52-.34v-10.88c0-.27.28-.45.52-.34l12.16,5.44c.29.13.29.55,0,.68Z"/>
  <g>
    <circle class="cls-7" cx="373.88" cy="143.59" r="28.8"/>
    <g>
      <rect class="cls-14" x="350.6" y="130.44" width="15.58" height="5.61"/>
      <g>
        <rect class="cls-14" x="378.05" y="130.44" width="9.04" height="5.61"/>
        <rect class="cls-14" x="388.11" y="130.44" width="9.04" height="5.61"/>
        <rect class="cls-14" x="367.98" y="130.44" width="9.04" height="5.61"/>
      </g>
      <g>
        <rect class="cls-14" x="350.6" y="137.85" width="15.58" height="5.61"/>
        <rect class="cls-14" x="350.6" y="144.49" width="15.58" height="5.61"/>
        <rect class="cls-14" x="350.6" y="151.12" width="15.58" height="5.61"/>
      </g>
      <g>
        <g>
          <rect class="cls-14" x="378.05" y="137.85" width="9.04" height="5.61"/>
          <rect class="cls-14" x="388.11" y="137.85" width="9.04" height="5.61"/>
          <rect class="cls-14" x="367.98" y="137.85" width="9.04" height="5.61"/>
        </g>
        <g>
          <rect class="cls-14" x="378.05" y="151.12" width="9.04" height="5.61"/>
          <rect class="cls-14" x="388.11" y="151.12" width="9.04" height="5.61"/>
          <rect class="cls-14" x="367.98" y="151.12" width="9.04" height="5.61"/>
        </g>
        <g>
          <rect class="cls-14" x="378.05" y="144.49" width="9.04" height="5.61"/>
          <rect class="cls-14" x="388.11" y="144.49" width="9.04" height="5.61"/>
          <rect class="cls-14" x="367.98" y="144.49" width="9.04" height="5.61"/>
        </g>
      </g>
    </g>
  </g>
  <g>
    <circle class="cls-7" cx="140.76" cy="65.88" r="28.8"/>
    <g>
      <rect class="cls-14" x="117.48" y="52.74" width="15.58" height="5.61"/>
      <g>
        <rect class="cls-14" x="144.93" y="52.74" width="9.04" height="5.61"/>
        <rect class="cls-14" x="154.99" y="52.74" width="9.04" height="5.61"/>
        <rect class="cls-14" x="134.87" y="52.74" width="9.04" height="5.61"/>
      </g>
      <g>
        <rect class="cls-14" x="117.48" y="60.15" width="15.58" height="5.61"/>
        <rect class="cls-14" x="117.48" y="66.78" width="15.58" height="5.61"/>
        <rect class="cls-14" x="117.48" y="73.42" width="15.58" height="5.61"/>
      </g>
      <g>
        <g>
          <rect class="cls-14" x="144.93" y="60.15" width="9.04" height="5.61"/>
          <rect class="cls-14" x="154.99" y="60.15" width="9.04" height="5.61"/>
          <rect class="cls-14" x="134.87" y="60.15" width="9.04" height="5.61"/>
        </g>
        <g>
          <rect class="cls-14" x="144.93" y="73.42" width="9.04" height="5.61"/>
          <rect class="cls-14" x="154.99" y="73.42" width="9.04" height="5.61"/>
          <rect class="cls-14" x="134.87" y="73.42" width="9.04" height="5.61"/>
        </g>
        <g>
          <rect class="cls-14" x="144.93" y="66.78" width="9.04" height="5.61"/>
          <rect class="cls-14" x="154.99" y="66.78" width="9.04" height="5.61"/>
          <rect class="cls-14" x="134.87" y="66.78" width="9.04" height="5.61"/>
        </g>
      </g>
    </g>
  </g>
  <path class="cls-9" d="M141.1,176.21l5.44,12.16c.11.25-.07.52-.34.52h-10.88c-.27,0-.45-.28-.34-.52l5.44-12.16c.13-.29.55-.29.68,0Z"/>
  <path class="cls-9" d="M141.1,110.97l5.44-12.16c.11-.25-.07-.52-.34-.52h-10.88c-.27,0-.45.28-.34.52l5.44,12.16c.13.29.55.29.68,0Z"/>
  <circle class="cls-7" cx="63.05" cy="143.59" r="28.8"/>
  <polyline class="cls-4" points="40.9 158.72 41.69 159.7 42.5 158.71 42.52 157.82 42.55 159.64 43.15 158.76 43.33 156.35 43.39 159.78 43.64 156.8 43.88 158.87 43.94 159.54 43.93 155.33 44.11 157.45 44.3 160 44.64 158.88 44.71 155.2 44.9 155.45 44.95 157.57 45.09 154.33 45.24 159.86 45.53 159.21 45.58 154.67 45.92 159.78 46.05 157.99 46.1 155.8 46.16 149.35 46.15 159.31 46.31 155.27 46.52 158.08 46.54 151.17 46.52 152.64 46.62 149.94 46.88 159.63 46.99 158.4 47.02 145.24 47.01 155.22 47.17 151.65 47.15 154.06 47.17 156.73 47.28 153.67 47.3 143.2 47.36 142.31 47.38 156 47.54 157.66 47.65 156.65 47.75 150.78 47.8 141.13 47.96 159.56 48.37 156.29 48.4 151.95 48.35 152.98 48.51 141.89 48.46 147.05 48.56 158.77 48.74 157.12 48.79 153.96 48.92 158.55 49.02 156.93 49.16 158.1 49.13 147.72 49.27 156.48 49.29 149.24 49.32 148.02 49.42 145.14 49.42 157.6 49.55 155.24 49.55 157.92 49.73 148.52 49.68 152.96 49.84 150.13 49.89 156.17 50.02 152.01 50.05 148.31 50.2 157.12 50.34 146.15 50.28 151.1 50.31 154.14 50.52 149.46 50.6 149.91 50.62 143.24 50.7 158.47 50.81 157.72 50.86 156.17 51.12 150.46 51.07 151.94 51.09 157.08 51.12 157.88 51.23 158.66 51.33 156.28 51.33 156.39 51.35 153.92 51.46 154.62 51.56 148.91 51.62 137.12 51.59 156.4 51.69 154.29 51.72 149.21 51.75 148.4 51.77 137.25 51.8 133.57 51.82 146.05 51.9 149.91 52.03 140.87 51.98 141.54 52.06 153.49 52.19 147.36 52.22 153.72 52.34 151.32 52.38 148.84 52.32 153.89 52.35 157.01 52.61 157.57 52.53 152.9 52.72 156.44 52.8 143.06 52.77 149.54 52.87 145.38 52.9 144.55 52.85 150.6 52.87 154.93 52.97 152.18 53 148.19 53.05 137 53.02 138.13 53.16 155.73 53.29 149.08 53.42 150.7 53.47 157.17 53.6 151.54 53.65 154.96 53.73 156.69 53.76 157.52 53.87 154.8 53.94 155.34 54.02 140.63 54.02 151.83 54.15 144.7 54.17 137 54.26 155.4 54.38 153.88 54.42 150.55 54.41 158.17 54.54 154.78 54.57 149.65 54.83 153 54.99 146.58 55.04 149.44 55.12 143.99 55.17 156.22 55.27 157.26 55.3 150.94 55.38 156 55.38 156.51 55.54 146.29 55.56 141.59 55.59 126.43 55.54 133.9 55.56 144.83 55.59 153.15 55.85 146.38 55.88 156.7 55.98 152.72 56 151.4 56.03 145.85 56.03 156.44 56.16 153.85 56.27 134.8 56.24 141.81 56.27 151.44 56.48 143.27 56.42 148.96 56.45 154.78 56.58 154.1 56.55 155.14 56.69 146.51 56.74 157.23 56.84 152.02 56.87 139.04 56.82 142.57 56.84 146.63 56.87 152.93 56.89 154.76 57 154.06 57.03 151.33 57.05 144.99 57.1 156.22 57.21 149.33 57.24 142.39 57.26 158.07 57.47 151.17 57.41 152.75 57.45 156.26 57.63 145.96 57.6 151.21 57.62 155.97 57.73 155.29 57.76 154.5 57.78 146.94 57.81 145.01 57.89 139.03 57.86 147.42 57.97 142.82 57.99 148.33 58.07 157.32 58.2 156.4 58.28 147.72 58.36 149.11 58.39 142.69 58.52 151.04 58.65 146.6 58.67 133.2 58.7 128.54 58.65 133.57 58.67 142.86 58.7 148.66 58.8 156.17 59.04 147.05 59.06 130.51 59.11 152.1 59.14 155.16 59.25 149.14 59.27 142.91 59.3 158.15 59.46 135.32 59.45 145.87 59.49 150.09 59.51 150.88 59.61 146.73 59.85 154.37 59.87 156.7 59.97 150.43 59.98 153.81 60 157.2 60.11 155 60.14 150.26 60.16 158.35 60.29 144.69 60.35 142.4 60.35 155.99 60.47 153.7 60.5 152.21 60.6 134.08 60.56 137.48 60.63 153.73 60.76 151.04 60.77 156.75 60.89 146.85 60.84 148.52 60.94 146.45 60.9 151.39 60.97 159.12 61.15 155.3 61.18 144.47 61.21 135.43 61.15 141.41 61.18 153.93 61.21 156.83 61.34 143.3 61.28 147.28 61.39 145.67 61.44 135.39 61.44 151.92 61.55 150.72 61.6 156.67 61.78 153.58 61.76 156.73 61.83 156.83 61.88 155.91 61.94 155.98 62.09 152.76 62.12 153.26 62.28 145.52 62.22 147.1 62.33 146.33 62.35 156.98 62.49 155.45 62.51 150.39 62.54 137.59 62.57 134.53 62.56 150.55 62.67 158.37 62.78 155.08 62.91 145.28 62.93 133.46 62.88 139.04 62.9 142.71 62.93 145.57 63.06 142.48 63.09 150.81 63.19 145.83 63.27 135.43 63.27 147.17 63.37 145.94 63.35 149.88 63.46 148.75 63.5 137.25 63.56 154.24 63.66 149.95 63.69 150.55 63.71 142.69 63.77 148.77 63.8 154.38 63.9 148.33 63.92 142.8 63.9 152.14 64.03 147.1 64.05 153.49 64.19 145.75 64.16 153.03 64.18 157.15 64.32 156.24 64.37 154.79 64.42 144.47 64.5 150.16 64.58 156.73 64.68 152.65 64.68 153.82 64.71 147.05 64.78 151.4 64.82 146.01 64.84 139.22 64.89 153.15 65.05 144.7 65 147.42 65.08 155.03 65.18 154.18 65.2 149.87 65.21 159.82 65.44 155.41 65.39 156.87 65.52 147.84 65.46 149.44 65.57 147.71 65.6 135.06 65.62 133.6 65.57 139.29 65.6 147.11 65.7 144.9 65.73 155.2 65.8 155.37 65.91 150.81 65.96 152.38 65.94 145.42 66.07 150.28 66.15 145.89 66.12 154.64 66.25 145.74 66.2 148.52 66.22 154.79 66.25 156.14 66.36 150.59 66.44 133.43 66.38 136.73 66.41 144.65 66.43 150.09 66.57 149.93 66.54 151.94 66.65 150.55 66.67 146.4 66.69 134.13 66.72 146.52 66.82 145.36 66.85 156.5 66.95 155.37 66.98 157.11 67.11 153.41 67.22 128.25 67.29 156.39 67.43 159.09 67.56 158.29 67.58 156.46 67.66 144.01 67.71 159.06 67.74 159.94 67.95 154.49 67.98 155.38 67.98 150.57 68.13 153.48 68.16 141.24 68.29 157.25 68.39 155.02 68.42 150.3 68.55 158.79 68.68 156.33 68.86 136.31 68.81 143.17 68.91 158.98 68.94 159.6 69.15 157.12 69.18 154.55 69.2 159.74 69.5 160.4 69.67 159.77 69.91 157.3 69.99 151.98 70.01 144.81 70.12 157.2 70.35 155.29 70.4 157.42 70.59 156 70.64 153.99 70.69 139.73 70.72 158.84 70.88 155.01 70.98 158.69 71.16 159.34 71.17 155.89 71.29 158.44 71.38 141.42 71.32 147.42 71.4 159.06 71.61 157.1 71.64 158.73 71.79 154.62 71.82 142.39 71.84 136.96 71.79 140.57 71.87 157.49 71.97 135.57 72 130.4 72.1 154.91 72.21 151.72 72.24 146.73 72.23 158.95 72.34 159.64 72.52 157.64 72.58 151.08 72.58 156.79 72.7 147.39 72.73 136.59 72.76 158.9 72.94 157.23 73.09 159.67 73.67 157.75 73.78 130.36 73.72 136.81 73.83 157.75 73.91 158.58 73.93 159.23 74.3 154.57 74.32 151.21 74.41 159.52 74.59 158.76 74.74 151.72 75.11 159.87 75.45 157.44 75.66 156.33 75.87 159.46 76.18 157.4 76.16 158.37 76.31 159.48 76.73 156.79 76.81 134.78 76.75 141.89 76.78 147.21 76.81 153.54 76.91 152.14 76.93 151.11 76.94 159.2 77.1 155.4 77.12 151.98 77.15 159.47 77.49 158.65 77.56 148.91 77.67 152.18 77.72 133 77.69 138.49 77.72 145.81 77.85 138.68 77.82 142.8 77.98 158.98 78.19 155.81 78.25 148.89 78.32 158.93 78.59 159.38 78.53 157.96 78.82 158.75 78.85 159.48 79.46 160.03 79.91 158.75 80.21 157.73 80.28 159.93 80.62 159.14 80.73 141.55 80.8 159.03 80.86 159.75 81.51 160.2 81.8 159.4 82.49 160.27 82.58 150.85 82.61 132.72 82.66 124.86"/>
  <g>
    <circle class="cls-6" cx="210.86" cy="143.97" r="4.06"/>
    <circle class="cls-2" cx="210.86" cy="143.97" r="4.06"/>
    <circle class="cls-6" cx="217.96" cy="157.66" r="4.06"/>
    <circle class="cls-2" cx="217.96" cy="157.66" r="4.06"/>
    <circle class="cls-16" cx="232.41" cy="156.39" r="4.06"/>
    <circle class="cls-2" cx="232.41" cy="156.39" r="4.06"/>
    <circle class="cls-15" cx="208.32" cy="129.52" r="4.06"/>
    <circle class="cls-2" cx="208.32" cy="129.52" r="4.06"/>
    <circle class="cls-6" cx="224.8" cy="143.46" r="4.06"/>
    <circle class="cls-2" cx="224.8" cy="143.46" r="4.06"/>
    <ellipse class="cls-6" cx="204.65" cy="137.88" rx="4.18" ry="4.06"/>
    <ellipse class="cls-2" cx="204.65" cy="137.88" rx="4.18" ry="4.06"/>
    <circle class="cls-6" cx="217.7" cy="138.39" r="4.06"/>
    <circle class="cls-2" cx="217.7" cy="138.39" r="4.06"/>
    <circle class="cls-6" cx="224.8" cy="151.83" r="4.06"/>
    <circle class="cls-2" cx="224.8" cy="151.83" r="4.06"/>
    <circle class="cls-6" cx="210.86" cy="152.33" r="4.06"/>
    <circle class="cls-2" cx="210.86" cy="152.33" r="4.06"/>
  </g>
  <g>
    <circle class="cls-7" cx="140.76" cy="221.29" r="28.8"/>
    <g class="cls-19">
      <line class="cls-17" x1="119.62" y1="233.87" x2="161.98" y2="233.87"/>
      <line class="cls-1" x1="123.17" y1="219.69" x2="123.17" y2="234.01"/>
      <line class="cls-5" x1="123.8" y1="231.41" x2="123.8" y2="233.84"/>
      <line class="cls-5" x1="121.36" y1="231.39" x2="121.36" y2="233.82"/>
      <line class="cls-5" x1="121.02" y1="231.94" x2="121.02" y2="234.37"/>
      <line class="cls-5" x1="121.68" y1="232.18" x2="121.68" y2="234.61"/>
      <line class="cls-5" x1="123.2" y1="220.12" x2="123.2" y2="235.09"/>
      <line class="cls-5" x1="128.21" y1="199.9" x2="128.21" y2="235.25"/>
      <line class="cls-5" x1="126.99" y1="220.63" x2="126.99" y2="235.12"/>
      <line class="cls-5" x1="130.55" y1="220.7" x2="130.61" y2="235.12"/>
      <line class="cls-5" x1="133.33" y1="212.14" x2="133.33" y2="235.06"/>
      <line class="cls-5" x1="142.16" y1="199.9" x2="142.16" y2="235.25"/>
      <line class="cls-5" x1="149.16" y1="204.09" x2="149.16" y2="239.43"/>
      <line class="cls-5" x1="145.79" y1="205.71" x2="145.79" y2="241.05"/>
      <line class="cls-5" x1="152.34" y1="204.58" x2="152.34" y2="239.93"/>
      <line class="cls-5" x1="155.34" y1="205.65" x2="155.34" y2="240.99"/>
      <line class="cls-5" x1="157.96" y1="211.08" x2="157.96" y2="246.43"/>
      <line class="cls-5" x1="160.52" y1="220.7" x2="160.52" y2="256.04"/>
      <line class="cls-5" x1="151.91" y1="217.57" x2="151.91" y2="252.92"/>
      <line class="cls-5" x1="137.98" y1="209.46" x2="137.98" y2="244.8"/>
      <line class="cls-5" x1="137.48" y1="216.82" x2="137.48" y2="252.17"/>
      <line class="cls-5" x1="141.73" y1="219.63" x2="141.73" y2="254.98"/>
      <line class="cls-5" x1="141.35" y1="220.38" x2="141.35" y2="255.73"/>
      <line class="cls-5" x1="145.29" y1="212.7" x2="145.29" y2="248.05"/>
      <line class="cls-5" x1="144.97" y1="220.51" x2="144.97" y2="255.86"/>
      <line class="cls-5" x1="157.78" y1="211.89" x2="157.78" y2="247.24"/>
      <line class="cls-5" x1="158.34" y1="212.45" x2="158.34" y2="247.8"/>
      <line class="cls-5" x1="160.21" y1="221.57" x2="160.21" y2="256.92"/>
      <line class="cls-5" x1="147.72" y1="232.75" x2="147.72" y2="268.1"/>
      <line class="cls-5" x1="144.16" y1="232.87" x2="144.16" y2="268.22"/>
      <line class="cls-5" x1="144.66" y1="233.44" x2="144.66" y2="268.78"/>
      <line class="cls-5" x1="133.61" y1="212.64" x2="133.61" y2="247.99"/>
      <line class="cls-5" x1="128.8" y1="216.57" x2="128.8" y2="251.92"/>
      <line class="cls-5" x1="127.74" y1="213.64" x2="127.74" y2="248.99"/>
      <line class="cls-5" x1="125.55" y1="229.25" x2="125.55" y2="264.6"/>
      <line class="cls-5" x1="125.99" y1="230.13" x2="125.99" y2="265.47"/>
      <line class="cls-5" x1="125.24" y1="230.13" x2="125.24" y2="265.47"/>
      <line class="cls-5" x1="120.06" y1="232.87" x2="120.06" y2="268.22"/>
      <line class="cls-5" x1="122.55" y1="232.75" x2="122.55" y2="268.1"/>
      <line class="cls-5" x1="136.42" y1="232.81" x2="136.42" y2="268.16"/>
      <line class="cls-5" x1="136.11" y1="233.44" x2="136.11" y2="268.78"/>
      <line class="cls-5" x1="138.67" y1="232.31" x2="138.67" y2="267.66"/>
      <line class="cls-5" x1="138.98" y1="232.94" x2="138.98" y2="268.28"/>
      <line class="cls-5" x1="131.36" y1="230.25" x2="131.36" y2="265.6"/>
      <line class="cls-5" x1="131.8" y1="231.19" x2="131.8" y2="266.53"/>
      <line class="cls-5" x1="130.11" y1="232.31" x2="130.11" y2="267.66"/>
      <line class="cls-5" x1="126.61" y1="221.82" x2="126.61" y2="257.17"/>
      <line class="cls-5" x1="149.53" y1="208.33" x2="149.53" y2="243.68"/>
      <line class="cls-5" x1="152.84" y1="219.63" x2="152.84" y2="254.98"/>
      <line class="cls-5" x1="151.53" y1="225.94" x2="151.53" y2="261.29"/>
      <line class="cls-5" x1="154.72" y1="229.75" x2="154.72" y2="265.1"/>
      <line class="cls-5" x1="155.65" y1="221.7" x2="155.65" y2="257.04"/>
      <line class="cls-5" x1="160.9" y1="222.38" x2="160.9" y2="257.73"/>
      <line class="cls-5" x1="159.27" y1="233.44" x2="159.27" y2="268.78"/>
      <line class="cls-5" x1="156.78" y1="233.44" x2="156.78" y2="268.78"/>
      <line class="cls-5" x1="153.84" y1="233.5" x2="153.84" y2="268.84"/>
      <line class="cls-5" x1="134.61" y1="233.5" x2="134.61" y2="268.84"/>
      <line class="cls-5" x1="124.18" y1="232.87" x2="124.18" y2="268.22"/>
      <line class="cls-3" x1="119.3" y1="234.75" x2="161.95" y2="234.75"/>
    </g>
  </g>
  <text class="cls-13" transform="translate(124.55 138.59)"><tspan x="0" y="0">Core</tspan><tspan x="4.98" y="18">MS</tspan></text>
  <text class="cls-11" transform="translate(271.94 132.39)"><tspan x="0" y="0">Similarity</tspan><tspan x="8.6" y="14.4">Score</tspan><tspan x="4.96" y="28.8">Control</tspan></text>
  <text class="cls-12" transform="translate(72.35 32.18)"><tspan x="0" y="0">Reference Database</tspan></text>
  <text class="cls-12" transform="translate(89.77 263.69)"><tspan x="0" y="0">GC-MS Control</tspan></text>
  <text class="cls-12" transform="translate(21.15 185.98)"><tspan x="0" y="0">Raw GC-MS</tspan></text>
  <text class="cls-12" transform="translate(188.23 185.62)"><tspan x="0" y="0">Identified</tspan><tspan x="-7.89" y="18">Metabolites</tspan></text>
  <text class="cls-12" transform="translate(335.75 185.62)"><tspan x="0" y="0">Metabolites</tspan><tspan x="1.64" y="18">Data Table</tspan></text>
  <text class="cls-10" transform="translate(1 -7.99)"><tspan x="0" y="0">GC-MS (metaMS) </tspan></text>
</svg>