<?xml version="1.0" encoding="UTF-8"?>
<svg id="Layer_2" xmlns="http://www.w3.org/2000/svg" xmlns:xlink="http://www.w3.org/1999/xlink" viewBox="0 0 424.8 280.8">
  <defs>
    <style>
      .cls-1, .cls-2, .cls-3, .cls-4, .cls-5 {
        fill: none;
      }

      .cls-6 {
        fill: #fdbe11;
      }

      .cls-2 {
        stroke: #16498a;
      }

      .cls-2, .cls-3, .cls-4, .cls-5 {
        stroke-miterlimit: 8;
      }

      .cls-7 {
        fill: #e78424;
      }

      .cls-7, .cls-8, .cls-9 {
        stroke-miterlimit: 10;
        stroke-width: 2px;
      }

      .cls-7, .cls-9 {
        stroke: #000001;
      }

      .cls-3 {
        stroke-width: 3px;
      }

      .cls-3, .cls-5 {
        stroke: #21409a;
      }

      .cls-10 {
        fill: #000001;
      }

      .cls-11 {
        font-size: 12px;
        letter-spacing: 0em;
      }

      .cls-11, .cls-12, .cls-13 {
        font-family: ArialMT, Arial;
      }

      .cls-11, .cls-13 {
        fill: #f1f2f2;
      }

      .cls-14 {
        fill: #ed1c24;
      }

      .cls-8 {
        fill: #442d7c;
        stroke: #452d7c;
      }

      .cls-4 {
        stroke: #2b3990;
        stroke-width: .5px;
      }

      .cls-15 {
        fill: #3d6cb4;
      }

      .cls-12 {
        fill: #231f20;
        letter-spacing: 0em;
      }

      .cls-12, .cls-13 {
        font-size: 15px;
      }

      .cls-9 {
        fill: #ec4924;
        fill-rule: evenodd;
      }

      .cls-16 {
        fill: #21409a;
      }

      .cls-17 {
        fill: #82d4f1;
      }

      .cls-18 {
        clip-path: url(#clippath);
      }

      .cls-13 {
        letter-spacing: 0em;
      }

      .cls-5 {
        stroke-width: .75px;
      }
    </style>
    <clipPath id="clippath">
      <rect class="cls-1" x="114.98" y="195.6" width="43.2" height="36.04"/>
    </clipPath>
  </defs>
  <g id="Layer_1-2" data-name="Layer_1">
    <rect class="cls-17" x="0" y="0" width="424.8" height="280.8" rx="18" ry="18"/>
    <path class="cls-9" d="M103.96,140.58l-12.16,5.44c-.25.11-.52-.07-.52-.34v-10.88c0-.27.28-.45.52-.34l12.16,5.44c.29.13.29.55,0,.68Z"/>
    <rect class="cls-8" x="107.78" y="111.44" width="57.6" height="57.6" rx="9.6" ry="9.6"/>
    <circle class="cls-7" cx="214.29" cy="140.24" r="28.8"/>
    <path class="cls-9" d="M259.37,140.58l-12.16,5.44c-.25.11-.52-.07-.52-.34v-10.88c0-.27.28-.45.52-.34l12.16,5.44c.29.13.29.55,0,.68Z"/>
    <rect class="cls-8" x="263.19" y="111.44" width="57.6" height="57.6" rx="9.6" ry="9.6"/>
    <path class="cls-9" d="M181.67,140.58l-12.16,5.44c-.25.11-.52-.07-.52-.34v-10.88c0-.27.28-.45.52-.34l12.16,5.44c.29.13.29.55,0,.68Z"/>
    <path class="cls-9" d="M337.08,140.58l-12.16,5.44c-.25.11-.52-.07-.52-.34v-10.88c0-.27.28-.45.52-.34l12.16,5.44c.29.13.29.55,0,.68Z"/>
    <g>
      <circle class="cls-7" cx="369.7" cy="140.24" r="28.8"/>
      <g>
        <rect class="cls-10" x="346.43" y="127.09" width="15.58" height="5.61"/>
        <g>
          <rect class="cls-10" x="373.87" y="127.09" width="9.04" height="5.61"/>
          <rect class="cls-10" x="383.94" y="127.09" width="9.04" height="5.61"/>
          <rect class="cls-10" x="363.81" y="127.09" width="9.04" height="5.61"/>
        </g>
        <g>
          <rect class="cls-10" x="346.43" y="134.5" width="15.58" height="5.61"/>
          <rect class="cls-10" x="346.43" y="141.14" width="15.58" height="5.61"/>
          <rect class="cls-10" x="346.43" y="147.77" width="15.58" height="5.61"/>
        </g>
        <g>
          <g>
            <rect class="cls-10" x="373.87" y="134.5" width="9.04" height="5.61"/>
            <rect class="cls-10" x="383.94" y="134.5" width="9.04" height="5.61"/>
            <rect class="cls-10" x="363.81" y="134.5" width="9.04" height="5.61"/>
          </g>
          <g>
            <rect class="cls-10" x="373.87" y="147.77" width="9.04" height="5.61"/>
            <rect class="cls-10" x="383.94" y="147.77" width="9.04" height="5.61"/>
            <rect class="cls-10" x="363.81" y="147.77" width="9.04" height="5.61"/>
          </g>
          <g>
            <rect class="cls-10" x="373.87" y="141.14" width="9.04" height="5.61"/>
            <rect class="cls-10" x="383.94" y="141.14" width="9.04" height="5.61"/>
            <rect class="cls-10" x="363.81" y="141.14" width="9.04" height="5.61"/>
          </g>
        </g>
      </g>
    </g>
    <g>
      <circle class="cls-7" cx="136.58" cy="62.53" r="28.8"/>
      <g>
        <rect class="cls-10" x="113.31" y="49.39" width="15.58" height="5.61"/>
        <g>
          <rect class="cls-10" x="140.75" y="49.39" width="9.04" height="5.61"/>
          <rect class="cls-10" x="150.82" y="49.39" width="9.04" height="5.61"/>
          <rect class="cls-10" x="130.69" y="49.39" width="9.04" height="5.61"/>
        </g>
        <g>
          <rect class="cls-10" x="113.31" y="56.8" width="15.58" height="5.61"/>
          <rect class="cls-10" x="113.31" y="63.43" width="15.58" height="5.61"/>
          <rect class="cls-10" x="113.31" y="70.07" width="15.58" height="5.61"/>
        </g>
        <g>
          <g>
            <rect class="cls-10" x="140.75" y="56.8" width="9.04" height="5.61"/>
            <rect class="cls-10" x="150.82" y="56.8" width="9.04" height="5.61"/>
            <rect class="cls-10" x="130.69" y="56.8" width="9.04" height="5.61"/>
          </g>
          <g>
            <rect class="cls-10" x="140.75" y="70.07" width="9.04" height="5.61"/>
            <rect class="cls-10" x="150.82" y="70.07" width="9.04" height="5.61"/>
            <rect class="cls-10" x="130.69" y="70.07" width="9.04" height="5.61"/>
          </g>
          <g>
            <rect class="cls-10" x="140.75" y="63.43" width="9.04" height="5.61"/>
            <rect class="cls-10" x="150.82" y="63.43" width="9.04" height="5.61"/>
            <rect class="cls-10" x="130.69" y="63.43" width="9.04" height="5.61"/>
          </g>
        </g>
      </g>
    </g>
    <path class="cls-9" d="M136.92,172.86l5.44,12.16c.11.25-.07.52-.34.52h-10.88c-.27,0-.45-.28-.34-.52l5.44-12.16c.13-.29.55-.29.68,0Z"/>
    <path class="cls-9" d="M136.92,107.62l5.44-12.16c.11-.25-.07-.52-.34-.52h-10.88c-.27,0-.45.28-.34.52l5.44,12.16c.13.29.55.29.68,0Z"/>
    <circle class="cls-7" cx="58.88" cy="140.24" r="28.8"/>
    <polyline class="cls-4" points="36.73 155.37 37.52 156.35 38.32 155.36 38.35 154.47 38.37 156.29 38.97 155.41 39.15 153 39.21 156.43 39.47 153.45 39.71 155.52 39.76 156.19 39.76 151.98 39.94 154.1 40.12 156.65 40.47 155.53 40.54 151.85 40.72 152.1 40.78 154.22 40.91 150.98 41.07 156.51 41.35 155.86 41.4 151.32 41.74 156.43 41.88 154.64 41.93 152.45 41.98 146 41.98 155.96 42.13 151.92 42.34 154.73 42.37 147.82 42.35 149.29 42.45 146.59 42.71 156.28 42.82 155.05 42.84 141.89 42.84 151.87 43 148.3 42.97 150.71 43 153.38 43.1 150.32 43.13 139.85 43.18 138.96 43.21 152.65 43.36 154.31 43.47 153.3 43.58 147.43 43.63 137.78 43.78 156.21 44.2 152.94 44.23 148.6 44.18 149.63 44.33 138.54 44.28 143.7 44.38 155.42 44.57 153.77 44.62 150.61 44.75 155.2 44.85 153.58 44.98 154.75 44.95 144.37 45.09 153.13 45.12 145.89 45.14 144.67 45.24 141.79 45.25 154.25 45.37 151.89 45.38 154.57 45.56 145.17 45.5 149.61 45.66 146.78 45.71 152.82 45.85 148.66 45.87 144.96 46.03 153.77 46.16 142.8 46.11 147.75 46.13 150.79 46.34 146.11 46.42 146.56 46.45 139.89 46.53 155.12 46.63 154.38 46.69 152.82 46.94 147.11 46.89 148.59 46.91 153.73 46.95 154.53 47.05 155.31 47.15 152.93 47.16 153.04 47.18 150.57 47.28 151.27 47.39 145.56 47.44 133.77 47.41 153.05 47.52 150.94 47.55 145.86 47.57 145.05 47.6 133.9 47.62 130.22 47.65 142.7 47.73 146.56 47.86 137.52 47.81 138.19 47.88 150.14 48.02 144.01 48.04 150.37 48.17 147.97 48.2 145.49 48.15 150.54 48.17 153.66 48.44 154.22 48.35 149.55 48.54 153.09 48.62 139.71 48.59 146.19 48.69 142.03 48.73 141.2 48.67 147.25 48.7 151.58 48.8 148.84 48.82 144.84 48.88 133.65 48.85 134.78 48.99 152.38 49.11 145.74 49.24 147.35 49.3 153.82 49.43 148.19 49.48 151.61 49.56 153.34 49.58 154.17 49.69 151.45 49.76 151.99 49.85 137.28 49.85 148.48 49.97 141.35 50 133.65 50.08 152.05 50.21 150.53 50.24 147.2 50.23 154.82 50.37 151.43 50.39 146.3 50.66 149.65 50.81 143.23 50.86 146.09 50.94 140.64 50.99 152.87 51.1 153.91 51.13 147.6 51.21 152.65 51.2 153.16 51.36 142.94 51.38 138.24 51.42 123.08 51.36 130.55 51.39 141.48 51.41 149.8 51.67 143.03 51.7 153.35 51.8 149.37 51.83 148.05 51.86 142.5 51.85 153.09 51.99 150.5 52.09 131.45 52.06 138.46 52.1 148.09 52.3 139.92 52.25 145.61 52.27 151.43 52.41 150.75 52.38 151.79 52.51 143.16 52.56 153.88 52.67 148.67 52.7 135.69 52.64 139.22 52.67 143.28 52.69 149.58 52.72 151.41 52.83 150.71 52.85 147.98 52.87 141.64 52.93 152.87 53.04 145.98 53.06 139.04 53.09 154.72 53.29 147.82 53.24 149.4 53.27 152.91 53.45 142.61 53.43 147.86 53.45 152.62 53.56 151.94 53.58 151.15 53.61 143.59 53.63 141.66 53.71 135.68 53.68 144.07 53.79 139.47 53.82 144.98 53.89 153.97 54.03 153.05 54.11 144.37 54.18 145.76 54.21 139.34 54.34 147.69 54.47 143.25 54.49 129.85 54.53 125.19 54.47 130.22 54.5 139.51 54.52 145.31 54.63 152.82 54.86 143.7 54.89 127.16 54.94 148.75 54.96 151.81 55.07 145.79 55.1 139.56 55.13 154.8 55.28 131.97 55.28 142.52 55.31 146.74 55.33 147.53 55.44 143.38 55.67 151.02 55.7 153.35 55.8 147.09 55.8 150.46 55.83 153.85 55.94 151.65 55.96 146.91 55.99 155 56.11 141.34 56.17 139.05 56.17 152.64 56.3 150.35 56.32 148.86 56.43 130.73 56.38 134.13 56.45 150.38 56.59 147.69 56.59 153.4 56.72 143.5 56.66 145.17 56.77 143.1 56.72 148.04 56.79 155.77 56.98 151.95 57.01 141.12 57.03 132.08 56.98 138.06 57 150.58 57.03 153.48 57.16 139.95 57.11 143.93 57.22 142.32 57.27 132.04 57.27 148.57 57.37 147.38 57.42 153.32 57.6 150.23 57.58 153.38 57.66 153.48 57.71 152.56 57.77 152.63 57.92 149.41 57.95 149.91 58.1 142.17 58.05 143.75 58.15 142.98 58.18 153.63 58.31 152.1 58.34 147.04 58.36 134.24 58.39 131.18 58.39 147.2 58.49 155.02 58.6 151.73 58.73 141.93 58.76 130.11 58.7 135.69 58.73 139.36 58.76 142.22 58.89 139.14 58.91 147.46 59.01 142.48 59.09 132.08 59.1 143.82 59.2 142.59 59.18 146.53 59.28 145.4 59.33 133.9 59.39 150.89 59.49 146.6 59.52 147.2 59.54 139.34 59.6 145.42 59.62 151.03 59.72 144.98 59.75 139.45 59.73 148.79 59.85 143.75 59.88 150.15 60.01 142.4 59.98 149.68 60.01 153.8 60.14 152.89 60.19 151.44 60.25 141.12 60.32 146.81 60.4 153.38 60.5 149.3 60.51 150.48 60.54 143.7 60.61 148.05 60.64 142.66 60.67 135.87 60.72 149.8 60.88 141.35 60.82 144.07 60.9 151.68 61 150.83 61.03 146.52 61.03 156.47 61.26 152.06 61.22 153.52 61.34 144.49 61.29 146.09 61.4 144.36 61.42 131.71 61.45 130.25 61.39 135.94 61.43 143.76 61.53 141.55 61.55 151.85 61.63 152.02 61.74 147.46 61.79 149.03 61.76 142.07 61.89 146.93 61.97 142.54 61.94 151.29 62.08 142.39 62.02 145.17 62.05 151.44 62.08 152.79 62.18 147.24 62.26 130.08 62.21 133.38 62.23 141.3 62.26 146.74 62.39 146.58 62.36 148.59 62.47 147.2 62.5 143.05 62.52 130.78 62.55 143.17 62.65 142.02 62.67 153.15 62.78 152.02 62.8 153.76 62.94 150.06 63.04 124.9 63.12 153.04 63.25 155.74 63.38 154.94 63.41 153.11 63.49 140.66 63.54 155.71 63.57 156.59 63.78 151.14 63.8 152.03 63.8 147.22 63.95 150.13 63.99 137.89 64.12 153.9 64.22 151.67 64.24 146.95 64.37 155.44 64.51 152.98 64.69 132.96 64.63 139.82 64.74 155.63 64.77 156.25 64.98 153.77 65 151.21 65.03 156.39 65.32 157.05 65.5 156.42 65.73 153.95 65.81 148.63 65.84 141.46 65.95 153.85 66.18 151.94 66.23 154.07 66.41 152.65 66.47 150.64 66.52 136.38 66.54 155.49 66.7 151.66 66.81 155.34 66.99 155.99 66.99 152.54 67.12 155.09 67.2 138.07 67.15 144.07 67.23 155.71 67.43 153.75 67.46 155.38 67.62 151.27 67.64 139.04 67.67 133.61 67.61 137.22 67.69 154.14 67.8 132.22 67.82 127.05 67.93 151.56 68.03 148.37 68.06 143.38 68.06 155.6 68.16 156.3 68.34 154.29 68.4 147.73 68.4 153.44 68.53 144.04 68.55 133.24 68.58 155.55 68.76 153.88 68.92 156.32 69.5 154.4 69.6 127.01 69.55 133.46 69.65 154.4 69.73 155.23 69.76 155.88 70.13 151.22 70.15 147.86 70.23 156.17 70.41 155.41 70.57 148.37 70.94 156.52 71.28 154.09 71.49 152.98 71.69 156.11 72 154.05 71.98 155.02 72.13 156.13 72.56 153.44 72.63 131.43 72.58 138.54 72.61 143.86 72.63 150.19 72.74 148.79 72.76 147.76 72.76 155.85 72.92 152.05 72.95 148.63 72.97 156.13 73.32 155.3 73.39 145.56 73.49 148.84 73.55 129.65 73.52 135.14 73.54 142.46 73.68 135.33 73.65 139.45 73.81 155.63 74.02 152.46 74.07 145.54 74.15 155.58 74.41 156.03 74.35 154.61 74.64 155.4 74.67 156.13 75.29 156.68 75.74 155.41 76.03 154.38 76.11 156.58 76.45 155.79 76.55 138.2 76.63 155.68 76.69 156.4 77.33 156.85 77.62 156.05 78.32 156.92 78.41 147.5 78.43 129.37 78.49 121.51"/>
    <g>
      <circle class="cls-6" cx="206.68" cy="140.62" r="4.06"/>
      <circle class="cls-2" cx="206.68" cy="140.62" r="4.06"/>
      <circle class="cls-6" cx="213.78" cy="154.31" r="4.06"/>
      <circle class="cls-2" cx="213.78" cy="154.31" r="4.06"/>
      <circle class="cls-15" cx="228.23" cy="153.04" r="4.06"/>
      <circle class="cls-2" cx="228.23" cy="153.04" r="4.06"/>
      <circle class="cls-14" cx="204.15" cy="126.17" r="4.06"/>
      <circle class="cls-2" cx="204.15" cy="126.17" r="4.06"/>
      <circle class="cls-6" cx="220.63" cy="140.11" r="4.06"/>
      <circle class="cls-2" cx="220.63" cy="140.11" r="4.06"/>
      <ellipse class="cls-6" cx="200.47" cy="134.53" rx="4.18" ry="4.06"/>
      <ellipse class="cls-2" cx="200.47" cy="134.53" rx="4.18" ry="4.06"/>
      <circle class="cls-6" cx="213.53" cy="135.04" r="4.06"/>
      <circle class="cls-2" cx="213.53" cy="135.04" r="4.06"/>
      <circle class="cls-6" cx="220.63" cy="148.48" r="4.06"/>
      <circle class="cls-2" cx="220.63" cy="148.48" r="4.06"/>
      <circle class="cls-6" cx="206.68" cy="148.98" r="4.06"/>
      <circle class="cls-2" cx="206.68" cy="148.98" r="4.06"/>
    </g>
    <g>
      <circle class="cls-7" cx="136.58" cy="217.94" r="28.8"/>
      <g class="cls-18">
        <line class="cls-16" x1="115.45" y1="230.52" x2="157.81" y2="230.52"/>
        <line class="cls-1" x1="118.99" y1="216.34" x2="118.99" y2="230.66"/>
        <line class="cls-5" x1="119.62" y1="228.06" x2="119.62" y2="230.49"/>
        <line class="cls-5" x1="117.19" y1="228.04" x2="117.19" y2="230.47"/>
        <line class="cls-5" x1="116.84" y1="228.59" x2="116.84" y2="231.02"/>
        <line class="cls-5" x1="117.51" y1="228.83" x2="117.51" y2="231.26"/>
        <line class="cls-5" x1="119.02" y1="216.77" x2="119.02" y2="231.74"/>
        <line class="cls-5" x1="124.03" y1="196.55" x2="124.03" y2="231.9"/>
        <line class="cls-5" x1="122.81" y1="217.28" x2="122.81" y2="231.77"/>
        <line class="cls-5" x1="126.37" y1="217.35" x2="126.44" y2="231.77"/>
        <line class="cls-5" x1="129.15" y1="208.79" x2="129.15" y2="231.71"/>
        <line class="cls-5" x1="137.99" y1="196.55" x2="137.99" y2="231.9"/>
        <line class="cls-5" x1="144.98" y1="200.74" x2="144.98" y2="236.08"/>
        <line class="cls-5" x1="141.61" y1="202.36" x2="141.61" y2="237.7"/>
        <line class="cls-5" x1="148.17" y1="201.23" x2="148.17" y2="236.58"/>
        <line class="cls-5" x1="151.17" y1="202.3" x2="151.17" y2="237.64"/>
        <line class="cls-5" x1="153.79" y1="207.73" x2="153.79" y2="243.08"/>
        <line class="cls-5" x1="156.35" y1="217.35" x2="156.35" y2="252.69"/>
        <line class="cls-5" x1="147.73" y1="214.22" x2="147.73" y2="249.57"/>
        <line class="cls-5" x1="133.8" y1="206.11" x2="133.8" y2="241.45"/>
        <line class="cls-5" x1="133.31" y1="213.47" x2="133.31" y2="248.82"/>
        <line class="cls-5" x1="137.55" y1="216.29" x2="137.55" y2="251.63"/>
        <line class="cls-5" x1="137.18" y1="217.03" x2="137.18" y2="252.38"/>
        <line class="cls-5" x1="141.11" y1="209.35" x2="141.11" y2="244.7"/>
        <line class="cls-5" x1="140.8" y1="217.16" x2="140.8" y2="252.51"/>
        <line class="cls-5" x1="153.6" y1="208.54" x2="153.6" y2="243.89"/>
        <line class="cls-5" x1="154.16" y1="209.1" x2="154.16" y2="244.45"/>
        <line class="cls-5" x1="156.04" y1="218.22" x2="156.04" y2="253.57"/>
        <line class="cls-5" x1="143.55" y1="229.4" x2="143.55" y2="264.75"/>
        <line class="cls-5" x1="139.99" y1="229.52" x2="139.99" y2="264.87"/>
        <line class="cls-5" x1="140.49" y1="230.09" x2="140.49" y2="265.43"/>
        <line class="cls-5" x1="129.43" y1="209.29" x2="129.43" y2="244.64"/>
        <line class="cls-5" x1="124.62" y1="213.23" x2="124.62" y2="248.57"/>
        <line class="cls-5" x1="123.56" y1="210.29" x2="123.56" y2="245.64"/>
        <line class="cls-5" x1="121.38" y1="225.9" x2="121.38" y2="261.25"/>
        <line class="cls-5" x1="121.81" y1="226.78" x2="121.81" y2="262.12"/>
        <line class="cls-5" x1="121.07" y1="226.78" x2="121.07" y2="262.12"/>
        <line class="cls-5" x1="115.88" y1="229.52" x2="115.88" y2="264.87"/>
        <line class="cls-5" x1="118.38" y1="229.4" x2="118.38" y2="264.75"/>
        <line class="cls-5" x1="132.24" y1="229.46" x2="132.24" y2="264.81"/>
        <line class="cls-5" x1="131.93" y1="230.09" x2="131.93" y2="265.43"/>
        <line class="cls-5" x1="134.49" y1="228.96" x2="134.49" y2="264.31"/>
        <line class="cls-5" x1="134.8" y1="229.59" x2="134.8" y2="264.93"/>
        <line class="cls-5" x1="127.19" y1="226.9" x2="127.19" y2="262.25"/>
        <line class="cls-5" x1="127.62" y1="227.84" x2="127.62" y2="263.18"/>
        <line class="cls-5" x1="125.94" y1="228.96" x2="125.94" y2="264.31"/>
        <line class="cls-5" x1="122.44" y1="218.47" x2="122.44" y2="253.82"/>
        <line class="cls-5" x1="145.36" y1="204.98" x2="145.36" y2="240.33"/>
        <line class="cls-5" x1="148.67" y1="216.29" x2="148.67" y2="251.63"/>
        <line class="cls-5" x1="147.36" y1="222.59" x2="147.36" y2="257.94"/>
        <line class="cls-5" x1="150.54" y1="226.4" x2="150.54" y2="261.75"/>
        <line class="cls-5" x1="151.48" y1="218.35" x2="151.48" y2="253.69"/>
        <line class="cls-5" x1="156.72" y1="219.03" x2="156.72" y2="254.38"/>
        <line class="cls-5" x1="155.1" y1="230.09" x2="155.1" y2="265.43"/>
        <line class="cls-5" x1="152.6" y1="230.09" x2="152.6" y2="265.43"/>
        <line class="cls-5" x1="149.67" y1="230.15" x2="149.67" y2="265.49"/>
        <line class="cls-5" x1="130.43" y1="230.15" x2="130.43" y2="265.49"/>
        <line class="cls-5" x1="120" y1="229.52" x2="120" y2="264.87"/>
        <line class="cls-3" x1="115.12" y1="231.4" x2="157.77" y2="231.4"/>
      </g>
    </g>
    <text class="cls-13" transform="translate(120.37 135.24)"><tspan x="0" y="0">Core</tspan><tspan x="4.98" y="18">MS</tspan></text>
    <text class="cls-11" transform="translate(267.77 129.04)"><tspan x="0" y="0">Similarity</tspan><tspan x="8.6" y="14.4">Score</tspan><tspan x="4.96" y="28.8">Control</tspan></text>
    <text class="cls-12" transform="translate(68.17 28.83)"><tspan x="0" y="0">Reference Database</tspan></text>
    <text class="cls-12" transform="translate(85.59 260.34)"><tspan x="0" y="0">GC-MS Control</tspan></text>
    <text class="cls-12" transform="translate(16.97 182.63)"><tspan x="0" y="0">Raw GC-MS</tspan></text>
    <text class="cls-12" transform="translate(184.05 182.27)"><tspan x="0" y="0">Identified</tspan><tspan x="-7.89" y="18">Metabolites</tspan></text>
    <text class="cls-12" transform="translate(331.57 182.27)"><tspan x="0" y="0">Metabolites</tspan><tspan x="1.64" y="18">Data Table</tspan></text>
  </g>
</svg>